<svg width="29" height="29" viewBox="0 0 29 29" fill="none" xmlns="http://www.w3.org/2000/svg">
<path d="M14.5 2.4165C7.84204 2.4165 2.41663 7.84192 2.41663 14.4998C2.41663 21.1578 7.84204 26.5832 14.5 26.5832C21.1579 26.5832 26.5833 21.1578 26.5833 14.4998C26.5833 7.84192 21.1579 2.4165 14.5 2.4165ZM18.56 17.279C18.9104 17.6294 18.9104 18.2094 18.56 18.5598C18.3787 18.7411 18.1491 18.8257 17.9195 18.8257C17.69 18.8257 17.4604 18.7411 17.2791 18.5598L14.5 15.7807L11.7208 18.5598C11.5395 18.7411 11.31 18.8257 11.0804 18.8257C10.8508 18.8257 10.6212 18.7411 10.44 18.5598C10.0895 18.2094 10.0895 17.6294 10.44 17.279L13.2191 14.4998L10.44 11.7207C10.0895 11.3703 10.0895 10.7903 10.44 10.4398C10.7904 10.0894 11.3704 10.0894 11.7208 10.4398L14.5 13.219L17.2791 10.4398C17.6295 10.0894 18.2095 10.0894 18.56 10.4398C18.9104 10.7903 18.9104 11.3703 18.56 11.7207L15.7808 14.4998L18.56 17.279Z" fill="#919191"/>
</svg>
