<svg width="80" height="60" viewBox="0 0 80 60" fill="none" xmlns="http://www.w3.org/2000/svg">
<path d="M30.6138 33.9204C30.6138 35.2496 29.5449 36.3433 28.2088 36.3433H8.13365C6.81423 36.3433 5.72864 35.2665 5.72864 33.9204V13.6961C5.72864 12.3669 6.79753 11.2732 8.13365 11.2732H28.1921C29.5115 11.2732 30.5971 12.35 30.5971 13.6961V33.9204H30.6138Z" fill="#0C2444"/>
<path d="M8.13361 35.2665V34.9973C7.83299 34.9973 7.58247 34.8627 7.39875 34.6776C7.21503 34.4925 7.08142 34.2065 7.08142 33.9373V13.7129C7.08142 13.4101 7.21503 13.1577 7.39875 12.9726C7.58247 12.7875 7.86639 12.6529 8.13361 12.6529H28.1921C28.4927 12.6529 28.7432 12.7875 28.9269 12.9726C29.1107 13.1577 29.2443 13.4437 29.2443 13.7129V33.9204C29.2443 34.2233 29.1107 34.4757 28.9269 34.6608C28.7432 34.8458 28.4593 34.9804 28.1921 34.9804H8.13361V35.2665V35.5357H28.1921C28.6263 35.5357 29.0271 35.3506 29.3278 35.0646C29.6284 34.7617 29.7954 34.3579 29.7954 33.9204V13.7129C29.7954 13.2754 29.6117 12.8716 29.3278 12.5688C29.0271 12.2659 28.6263 12.0977 28.1921 12.0977H8.13361C7.69938 12.0977 7.29854 12.2827 6.99791 12.5688C6.69729 12.8716 6.53027 13.2754 6.53027 13.7129V33.9204C6.53027 34.3579 6.71399 34.7617 6.99791 35.0646C7.29854 35.3674 7.69938 35.5357 8.13361 35.5357V35.2665Z" fill="white"/>
<path d="M52.476 48.3904C52.476 49.7196 51.4071 50.8133 50.071 50.8133H30.0293C28.7099 50.8133 27.6243 49.7365 27.6243 48.3904V28.1829C27.6243 26.8537 28.6932 25.76 30.0293 25.76H50.0877C51.4071 25.76 52.4927 26.8368 52.4927 28.1829L52.476 48.3904Z" fill="white"/>
<path d="M30.0292 49.7196V49.4504C29.7286 49.4504 29.4781 49.3158 29.2944 49.1307C29.1107 48.9456 28.9771 48.6596 28.9771 48.3904V28.1829C28.9771 27.88 29.1107 27.6276 29.2944 27.4426C29.4781 27.2575 29.762 27.1229 30.0292 27.1229H50.0877C50.3883 27.1229 50.6388 27.2575 50.8226 27.4426C51.0063 27.6276 51.1399 27.9137 51.1399 28.1829V48.3904C51.1399 48.6933 51.0063 48.9456 50.8226 49.1307C50.6388 49.3158 50.3549 49.4504 50.0877 49.4504H30.0292V49.7196V49.9888H50.0877C50.5219 49.9888 50.9228 49.8037 51.2234 49.5177C51.524 49.2149 51.691 48.811 51.691 48.3736V28.1829C51.691 27.7454 51.5073 27.3416 51.2234 27.0387C50.9228 26.7359 50.5219 26.5676 50.0877 26.5676H30.0292C29.595 26.5676 29.1942 26.7527 28.8935 27.0387C28.5929 27.3416 28.4259 27.7454 28.4259 28.1829V48.3904C28.4259 48.8279 28.6096 49.2317 28.8935 49.5345C29.1942 49.8374 29.595 50.0057 30.0292 50.0057V49.7196Z" fill="#0C2444"/>
<path d="M74.3717 33.9204C74.3717 35.2496 73.3028 36.3433 71.9666 36.3433H51.9082C50.5888 36.3433 49.5032 35.2665 49.5032 33.9204V13.6961C49.5032 12.3669 50.5721 11.2732 51.9082 11.2732H71.9833C73.3028 11.2732 74.3884 12.35 74.3884 13.6961L74.3717 33.9204Z" fill="#EA2B3A"/>
<path d="M51.9081 35.2665V34.9972C51.6075 34.9972 51.357 34.8626 51.1733 34.6776C50.9896 34.4925 50.856 34.2064 50.856 33.9372V13.6961C50.856 13.3932 50.9896 13.1408 51.1733 12.9557C51.357 12.7707 51.6409 12.6361 51.9081 12.6361H71.9833C72.2839 12.6361 72.5345 12.7707 72.7182 12.9557C72.9019 13.1408 73.0355 13.4269 73.0355 13.6961V33.9036C73.0355 34.2064 72.9019 34.4588 72.7182 34.6439C72.5345 34.829 72.2505 34.9636 71.9833 34.9636H51.9081V35.2665V35.5357H71.9833C72.4175 35.5357 72.8184 35.3506 73.119 35.0645C73.4196 34.7617 73.5866 34.3579 73.5866 33.9204V13.6961C73.5866 13.2586 73.4029 12.8548 73.119 12.5519C72.8184 12.2491 72.4175 12.0808 71.9833 12.0808H51.9081C51.4739 12.0808 51.0731 12.2659 50.7724 12.5519C50.4718 12.8548 50.3048 13.2586 50.3048 13.6961V33.9036C50.3048 34.341 50.4885 34.7449 50.7724 35.0477C51.0731 35.3506 51.4739 35.5188 51.9081 35.5188V35.2665Z" fill="white"/>
<path d="M25.1357 25.5244C24.7348 27.1229 23.9165 28.4016 22.6471 29.4111C21.3778 30.387 19.9582 30.875 18.3048 30.875C16.334 30.875 14.6638 30.2019 13.2776 28.8391C11.8914 27.4594 11.1899 25.7768 11.1899 23.8082C11.1899 21.8396 11.8914 20.1571 13.2609 18.7774C14.6304 17.4481 16.3173 16.7583 18.2714 16.7583C20.8434 16.7583 22.8142 17.8183 24.2004 19.9552C24.6847 20.6955 25.002 21.4358 25.119 22.1761H21.4947C20.9102 20.6114 19.8079 19.8037 18.238 19.8037C17.1691 19.8037 16.3006 20.2075 15.5991 20.9983C14.9478 21.7555 14.6137 22.6977 14.6137 23.7746C14.6137 24.8851 14.9478 25.8105 15.5991 26.5676C16.3006 27.3921 17.1858 27.7959 18.2547 27.7959C19.7244 27.7959 20.81 27.0387 21.4947 25.5076L25.1357 25.5244Z" fill="white"/>
<path d="M39.6826 34.543V36.8481H43.6075V39.9103H39.6826V45.0758H36.3757V31.4807H43.7411V34.543H39.6826Z" fill="#0C2444"/>
<path d="M63.6994 30.6226H60.1754L55.6493 16.9939H59.1733L61.9123 26.5508H61.9624L64.7015 16.9939H68.2255L63.6994 30.6226Z" fill="white"/>
<path d="M3.70776 3.80258C3.69105 3.85306 3.65765 3.86988 3.64095 3.88671C3.62425 3.90353 3.57414 3.90353 3.54074 3.90353C3.50734 3.90353 3.47394 3.88671 3.44053 3.85306C3.39043 3.83623 3.35703 3.80258 3.29022 3.76893C3.24011 3.7521 3.19001 3.70163 3.1232 3.6848C3.0564 3.66798 2.97289 3.63433 2.88938 3.63433C2.73907 3.63433 2.63886 3.65115 2.55535 3.71845C2.47185 3.78576 2.45515 3.90353 2.45515 4.02131C2.45515 4.08862 2.47185 4.15592 2.52195 4.18957C2.57206 4.24005 2.62216 4.2737 2.68897 4.29052C2.75577 4.341 2.83928 4.35783 2.92279 4.37465C3.00629 4.39148 3.1065 4.44195 3.19001 4.45878C3.27352 4.50926 3.37373 4.52608 3.45723 4.59338C3.54074 4.64386 3.62425 4.69434 3.69105 4.76164C3.75786 4.82894 3.82467 4.91307 3.85807 5.01402C3.90817 5.11498 3.92487 5.23275 3.92487 5.36736C3.92487 5.51879 3.90817 5.67022 3.84137 5.80482C3.77456 5.93943 3.70776 6.05721 3.60755 6.15816C3.50734 6.25911 3.37373 6.34324 3.22341 6.39372C3.0731 6.46102 2.90609 6.47785 2.72237 6.47785C2.62216 6.47785 2.50525 6.46102 2.40504 6.42737C2.30483 6.41055 2.18792 6.37689 2.08771 6.34324C1.98751 6.29277 1.9207 6.27594 1.82049 6.20864C1.73698 6.14134 1.65348 6.10768 1.58667 6.02356L1.82049 5.68705C1.83719 5.67022 1.87059 5.63657 1.8873 5.61974C1.904 5.60292 1.9541 5.60292 1.9875 5.60292C2.02091 5.60292 2.07101 5.61974 2.13782 5.65339C2.18792 5.67022 2.23803 5.7207 2.30483 5.75435C2.37164 5.80482 2.43844 5.82165 2.52195 5.8553C2.60546 5.87213 2.68897 5.90578 2.78918 5.90578C2.93949 5.90578 3.0397 5.88895 3.1232 5.82165C3.20671 5.75435 3.25682 5.65339 3.25682 5.51879C3.25682 5.43466 3.24011 5.36736 3.19001 5.33371C3.13991 5.28323 3.0898 5.24958 3.023 5.1991C2.95619 5.14863 2.87268 5.1318 2.78918 5.11498C2.70567 5.09815 2.60546 5.0645 2.52195 5.03085C2.43844 5.01402 2.33824 4.96355 2.25473 4.92989C2.17122 4.87942 2.08771 4.82894 2.02091 4.76164C1.9541 4.69434 1.8873 4.59338 1.85389 4.49243C1.80379 4.39148 1.78709 4.25687 1.78709 4.08862C1.78709 3.95401 1.80379 3.83623 1.87059 3.70163C1.9207 3.56702 2.00421 3.46607 2.10442 3.38194C2.20462 3.29781 2.32153 3.21369 2.45515 3.14638C2.60546 3.07908 2.77247 3.06226 2.93949 3.06226C3.0397 3.06226 3.15661 3.06226 3.24011 3.07908C3.34032 3.09591 3.42383 3.12956 3.50734 3.14638C3.59085 3.16321 3.67435 3.21369 3.75786 3.24734C3.84137 3.28099 3.90817 3.33147 3.97498 3.39877L3.70776 3.80258Z" fill="#0C2444"/>
<path d="M8.05008 2.77635C8.05008 2.82683 8.06678 2.84366 8.06678 2.91096C8.06678 2.96144 8.06678 3.01191 8.06678 3.06239C8.06678 3.14652 8.05008 3.24747 8.01667 3.3316C7.99997 3.41573 7.94987 3.49985 7.91646 3.56716C7.88306 3.63446 7.81626 3.71859 7.73275 3.75224C7.64924 3.81954 7.56573 3.85319 7.46552 3.88684C7.54903 4.02145 7.61584 4.15605 7.64924 4.30748C7.68264 4.45891 7.71605 4.62717 7.71605 4.79542C7.71605 5.04781 7.66594 5.26654 7.58244 5.46845C7.49893 5.68718 7.36532 5.87226 7.2317 6.02369C7.08139 6.17512 6.89768 6.2929 6.68056 6.37703C6.46344 6.46116 6.21292 6.51163 5.96239 6.51163C5.71187 6.51163 5.46135 6.46116 5.24423 6.37703C5.02711 6.2929 4.8434 6.1583 4.69308 6.02369C4.54277 5.88909 4.42586 5.68718 4.34235 5.46845C4.25884 5.24971 4.20874 5.03098 4.20874 4.79542C4.20874 4.54304 4.25884 4.32431 4.34235 4.1224C4.42586 3.90367 4.55947 3.71859 4.69308 3.56716C4.82669 3.41573 5.02711 3.29795 5.24423 3.21382C5.46135 3.12969 5.71187 3.07921 5.96239 3.07921C6.21292 3.07921 6.46344 3.12969 6.68056 3.21382C6.89768 3.29795 7.08139 3.43255 7.2317 3.56716C7.29851 3.55033 7.31521 3.51668 7.36532 3.48303C7.38202 3.43255 7.41542 3.41573 7.41542 3.38208C7.41542 3.36525 7.41542 3.3316 7.39872 3.31477C7.39872 3.29795 7.38202 3.2643 7.38202 3.24747C7.36532 3.23065 7.36532 3.19699 7.36532 3.16334C7.36532 3.14652 7.34861 3.09604 7.34861 3.06239C7.34861 2.97826 7.36532 2.89413 7.43212 2.84366C7.49893 2.79318 7.58243 2.77635 7.69934 2.77635C7.66594 2.77635 8.05008 2.77635 8.05008 2.77635ZM5.97909 5.88909C6.12941 5.88909 6.24632 5.87226 6.37993 5.82178C6.51354 5.77131 6.59705 5.68718 6.68056 5.60305C6.76406 5.51892 6.83087 5.38432 6.86427 5.26654C6.91438 5.13194 6.93108 4.99733 6.93108 4.82907C6.93108 4.66082 6.91438 4.50939 6.86427 4.39161C6.81417 4.25701 6.76406 4.13923 6.68056 4.0551C6.59705 3.97097 6.49684 3.88684 6.37993 3.83637C6.24632 3.78589 6.12941 3.75224 5.97909 3.75224C5.82878 3.75224 5.67847 3.76906 5.57826 3.83637C5.44465 3.88684 5.36114 3.97097 5.27763 4.0551C5.19413 4.13923 5.12732 4.27383 5.09392 4.39161C5.04381 4.52621 5.02711 4.66082 5.02711 4.82907C5.02711 4.99733 5.04381 5.14876 5.09392 5.26654C5.14402 5.38432 5.19413 5.51892 5.27763 5.60305C5.36114 5.68718 5.46135 5.77131 5.57826 5.82178C5.67847 5.87226 5.81208 5.88909 5.97909 5.88909ZM5.41125 2.30524C5.47805 2.25476 5.54486 2.23794 5.64507 2.20429C5.74527 2.18746 5.86218 2.15381 5.96239 2.15381C6.12941 2.15381 6.27972 2.17063 6.36323 2.25476C6.44674 2.32206 6.51354 2.40619 6.51354 2.50715C6.51354 2.55762 6.51354 2.59127 6.49684 2.64175C6.48014 2.69223 6.44674 2.70905 6.43003 2.72588C6.41333 2.7427 6.36323 2.77635 6.32983 2.79318C6.27972 2.81001 6.24632 2.84366 6.19621 2.84366L6.14611 2.94461H5.81208V2.6754C5.89559 2.6754 5.94569 2.65858 5.97909 2.62492C6.0292 2.6081 6.0292 2.57445 6.0292 2.55762C6.0292 2.5408 6.0125 2.50715 5.97909 2.49032C5.96239 2.47349 5.91229 2.47349 5.87889 2.47349C5.86218 2.47349 5.82878 2.47349 5.79538 2.47349C5.77868 2.47349 5.74527 2.49032 5.72857 2.49032C5.71187 2.49032 5.67847 2.50715 5.66177 2.50715C5.64507 2.50715 5.61166 2.50715 5.61166 2.50715C5.59496 2.50715 5.56156 2.50715 5.56156 2.49032C5.54486 2.47349 5.54486 2.47349 5.51145 2.43984L5.41125 2.30524Z" fill="#0C2444"/>
<path d="M11.1399 4.74479H12.3424V6.19179C12.1754 6.3264 11.9917 6.41053 11.7913 6.461C11.6076 6.5283 11.3904 6.54513 11.1733 6.54513C10.9061 6.54513 10.6389 6.49465 10.4218 6.41052C10.1879 6.3264 10.0042 6.19179 9.8372 6.05719C9.67019 5.90576 9.53658 5.72068 9.45307 5.50194C9.36956 5.28321 9.31946 5.06448 9.31946 4.79527C9.31946 4.54289 9.36956 4.30733 9.45307 4.0886C9.53658 3.86986 9.67019 3.68478 9.8038 3.53335C9.93741 3.38192 10.1378 3.26414 10.3716 3.18001C10.5888 3.09589 10.8393 3.04541 11.1065 3.04541C11.2568 3.04541 11.3737 3.06224 11.5073 3.09589C11.641 3.11271 11.7412 3.16319 11.8414 3.19684C11.9416 3.23049 12.0251 3.28097 12.142 3.34827C12.2255 3.41557 12.309 3.44922 12.3758 3.53335L12.1253 3.86986C12.0752 3.93717 12.0418 3.95399 11.975 3.97082C11.9082 3.98764 11.8414 3.97082 11.7913 3.92034C11.7245 3.86986 11.6577 3.85304 11.6243 3.81939C11.5575 3.80256 11.5241 3.76891 11.4572 3.75208C11.3904 3.73526 11.3236 3.73526 11.2735 3.70161C11.2067 3.70161 11.1399 3.68478 11.0564 3.68478C10.9061 3.68478 10.7892 3.70161 10.6556 3.76891C10.522 3.81939 10.4385 3.90351 10.3549 3.98764C10.2714 4.07177 10.2046 4.20637 10.1712 4.32415C10.1211 4.45876 10.1044 4.59336 10.1044 4.76162C10.1044 4.92987 10.1211 5.09813 10.1879 5.24956C10.238 5.40099 10.3215 5.50194 10.4051 5.6029C10.4886 5.70385 10.5888 5.77115 10.7224 5.82163C10.856 5.87211 10.9896 5.90576 11.1399 5.90576C11.2234 5.90576 11.3236 5.90576 11.3904 5.88893C11.4739 5.87211 11.5408 5.83846 11.6243 5.8048V5.30004H11.2902C11.2401 5.30004 11.2067 5.28321 11.19 5.24956C11.1733 5.21591 11.1399 5.18226 11.1399 5.14861V4.74479Z" fill="#0C2444"/>
<path d="M13.6451 6.49473H12.8601V3.11279H13.6451V6.49473Z" fill="#0C2444"/>
<path d="M17.3028 6.49475H16.7015C16.6347 6.49475 16.5679 6.47792 16.5345 6.44427C16.4844 6.39379 16.4677 6.37697 16.451 6.30967L16.2673 5.72077H14.9813L14.7976 6.30967C14.7809 6.36014 14.7474 6.39379 14.714 6.44427C14.6639 6.49475 14.6138 6.49475 14.547 6.49475H13.9291L15.2318 3.09598H16.0335L17.3028 6.49475ZM16.0669 5.19918L15.7495 4.27377C15.7328 4.20647 15.6994 4.13917 15.666 4.05504C15.6493 3.97091 15.6159 3.88678 15.5825 3.80265C15.5658 3.88678 15.5324 3.98774 15.499 4.05504C15.4823 4.13917 15.4489 4.20647 15.4155 4.27377L15.0982 5.19918H16.0669ZM16.6681 2.15375L15.9166 2.80995C15.8998 2.82677 15.8664 2.82677 15.8497 2.86042C15.833 2.86042 15.7996 2.87725 15.7829 2.87725C15.7662 2.87725 15.7328 2.87725 15.7161 2.87725C15.6994 2.87725 15.666 2.87725 15.6493 2.87725H15.1149L15.5491 2.23788C15.5658 2.22105 15.5992 2.1874 15.6159 2.17057C15.6326 2.15375 15.666 2.15375 15.6827 2.1201C15.6994 2.1201 15.7328 2.10327 15.7495 2.10327C15.7662 2.10327 15.8163 2.10327 15.833 2.10327H16.6514L16.6681 2.15375Z" fill="#0C2444"/>
<path d="M20.8935 4.81216C20.8935 5.06454 20.8434 5.28327 20.7599 5.48518C20.6764 5.70391 20.5428 5.88899 20.4092 6.04042C20.2589 6.19185 20.0752 6.30963 19.858 6.39376C19.6409 6.47789 19.3904 6.52836 19.1399 6.52836C18.8894 6.52836 18.6388 6.47789 18.4217 6.39376C18.2046 6.30963 18.0209 6.17503 17.8706 6.04042C17.7203 5.88899 17.6033 5.70391 17.5198 5.48518C17.4363 5.26645 17.3862 5.04771 17.3862 4.81216C17.3862 4.55977 17.4363 4.34104 17.5198 4.13913C17.6033 3.93723 17.737 3.73532 17.8706 3.58389C18.0042 3.43246 18.2046 3.31468 18.4217 3.23055C18.6388 3.14642 18.8894 3.09595 19.1399 3.09595C19.3904 3.09595 19.6409 3.14642 19.858 3.23055C20.0752 3.31468 20.2589 3.44928 20.4092 3.58389C20.5595 3.73532 20.6764 3.9204 20.7599 4.13913C20.8434 4.34104 20.8935 4.5766 20.8935 4.81216ZM20.0919 4.81216C20.0919 4.6439 20.0752 4.49247 20.0251 4.37469C19.975 4.24009 19.9249 4.12231 19.8413 4.03818C19.7578 3.95405 19.6576 3.86992 19.5407 3.81945C19.4071 3.76897 19.2902 3.73532 19.1399 3.73532C18.9896 3.73532 18.8393 3.75214 18.739 3.81945C18.6054 3.86992 18.5219 3.95405 18.4384 4.03818C18.3549 4.12231 18.2881 4.25691 18.2547 4.37469C18.2046 4.5093 18.1879 4.6439 18.1879 4.81216C18.1879 4.98041 18.2046 5.13184 18.2547 5.24962C18.3048 5.38423 18.3549 5.502 18.4384 5.58613C18.5219 5.67026 18.6221 5.75439 18.739 5.80486C18.8727 5.85534 18.9896 5.87217 19.1399 5.87217C19.2902 5.87217 19.4071 5.85534 19.5407 5.80486C19.6743 5.75439 19.7578 5.67026 19.8413 5.58613C19.9249 5.502 19.9917 5.3674 20.0251 5.24962C20.0585 5.11502 20.0919 4.98041 20.0919 4.81216Z" fill="#0C2444"/>
<path d="M25.4697 4.81218C25.4697 5.06456 25.4196 5.28329 25.3361 5.4852C25.2526 5.70393 25.119 5.87219 24.9854 6.02362C24.8517 6.17505 24.6513 6.29283 24.4342 6.37695C24.2171 6.46108 23.9666 6.51156 23.716 6.51156H22.4133V3.11279H23.716C23.9666 3.11279 24.2171 3.16327 24.4342 3.2474C24.6513 3.33153 24.835 3.46613 24.9854 3.60073C25.1357 3.75216 25.2526 3.93725 25.3361 4.13915C25.4363 4.34106 25.4697 4.57662 25.4697 4.81218ZM24.668 4.81218C24.668 4.64392 24.6513 4.49249 24.6012 4.37471C24.5511 4.24011 24.501 4.12233 24.4175 4.0382C24.334 3.95407 24.2338 3.86994 24.1169 3.81947C23.9833 3.76899 23.8664 3.73534 23.716 3.73534H23.1816V5.92266H23.716C23.8664 5.92266 23.9833 5.90584 24.1169 5.83854C24.2505 5.78806 24.334 5.70393 24.4175 5.6198C24.501 5.53568 24.5678 5.40107 24.6012 5.28329C24.6513 5.11504 24.668 4.98043 24.668 4.81218Z" fill="#0C2444"/>
<path d="M27.3403 5.88901C27.4405 5.88901 27.524 5.87219 27.6075 5.83854C27.691 5.78806 27.7578 5.75441 27.8246 5.68711C27.8914 5.6198 27.9248 5.53568 27.9582 5.45155C27.9749 5.36742 28.0083 5.26647 28.0083 5.13186V3.11279H28.7933V5.13186C28.7933 5.35059 28.7432 5.53568 28.6931 5.70393C28.6263 5.87219 28.5261 6.02362 28.3925 6.1414C28.2588 6.276 28.1252 6.37695 27.9248 6.44426C27.7578 6.51156 27.5407 6.54521 27.3069 6.54521C27.073 6.54521 26.8893 6.49473 26.6889 6.44426C26.5052 6.37695 26.3549 6.276 26.2213 6.1414C26.0877 6.00679 26.0041 5.87219 25.9206 5.70393C25.8538 5.53568 25.8204 5.35059 25.8204 5.13186V3.11279H26.6054V5.13186C26.6054 5.26647 26.6221 5.36742 26.6555 5.45155C26.6722 5.53568 26.7223 5.6198 26.7891 5.68711C26.8559 5.75441 26.9227 5.78806 27.0062 5.83854C27.1398 5.87219 27.2401 5.88901 27.3403 5.88901ZM27.7244 7.04998C27.7244 7.10045 27.7244 7.15093 27.7077 7.20141C27.691 7.25188 27.6576 7.28554 27.6242 7.30236C27.5741 7.35284 27.5407 7.36966 27.4906 7.38649C27.4405 7.40331 27.3904 7.40331 27.3403 7.40331C27.2902 7.40331 27.2401 7.40331 27.19 7.38649C27.1398 7.36966 27.1064 7.33601 27.0563 7.30236C27.0062 7.25188 26.9895 7.23506 26.9728 7.20141C26.9561 7.15093 26.9561 7.11728 26.9561 7.04998C26.9561 6.9995 26.9561 6.94902 26.9728 6.89855C26.9895 6.84807 27.0229 6.81442 27.0563 6.79759C27.1064 6.74712 27.1231 6.73029 27.19 6.71347C27.2401 6.69664 27.2735 6.69664 27.3403 6.69664C27.3904 6.69664 27.4405 6.69664 27.4906 6.71347C27.5407 6.73029 27.5741 6.76394 27.6242 6.79759C27.6743 6.84807 27.691 6.8649 27.7077 6.89855C27.7077 6.94902 27.7244 6.98268 27.7244 7.04998Z" fill="#0C2444"/>
<path d="M31.666 5.63655C31.6827 5.63655 31.7161 5.63655 31.7328 5.63655C31.7495 5.63655 31.7829 5.65337 31.7996 5.68702L32.1169 6.00671C31.9833 6.17497 31.7996 6.3264 31.6159 6.41052C31.3988 6.49465 31.1816 6.54513 30.8977 6.54513C30.6472 6.54513 30.4134 6.49465 30.1962 6.41052C29.9791 6.3264 29.8121 6.19179 29.6618 6.05719C29.5115 5.90576 29.4113 5.72068 29.3445 5.50194C29.261 5.28321 29.2443 5.06448 29.2443 4.79527C29.2443 4.52606 29.2944 4.30733 29.3779 4.0886C29.4614 3.86986 29.5616 3.68478 29.7119 3.53335C29.8622 3.38192 30.0292 3.26414 30.2464 3.18001C30.4635 3.09589 30.6806 3.04541 30.9144 3.04541C31.048 3.04541 31.1649 3.06224 31.2651 3.09589C31.3653 3.11271 31.4823 3.16319 31.5825 3.18001C31.6827 3.23049 31.7662 3.26414 31.8497 3.33144C31.9332 3.39875 32 3.4324 32.0668 3.51653L31.7996 3.86986C31.7829 3.88669 31.7495 3.92034 31.7328 3.93717C31.7161 3.95399 31.666 3.95399 31.6326 3.95399C31.6159 3.95399 31.5658 3.95399 31.5491 3.93717C31.5324 3.92034 31.499 3.92034 31.4656 3.88669C31.4489 3.86986 31.3987 3.83621 31.382 3.81939C31.3319 3.80256 31.3152 3.76891 31.2484 3.75208C31.1983 3.73526 31.1482 3.70161 31.0814 3.70161C31.0146 3.68478 30.9478 3.68478 30.8643 3.68478C30.7307 3.68478 30.6138 3.70161 30.5136 3.75208C30.4134 3.80256 30.3299 3.88669 30.2464 3.97082C30.1628 4.05494 30.096 4.18955 30.0626 4.30733C30.0292 4.42511 29.9958 4.61019 29.9958 4.77844C29.9958 4.9467 30.0125 5.09813 30.0626 5.24956C30.1127 5.38416 30.1628 5.50194 30.2464 5.58607C30.3299 5.6702 30.4134 5.75433 30.5136 5.8048C30.6138 5.85528 30.7474 5.87211 30.8476 5.87211C30.9144 5.87211 30.9812 5.87211 31.0313 5.87211C31.0981 5.87211 31.1315 5.85528 31.1983 5.82163C31.2484 5.8048 31.2985 5.77115 31.3486 5.75433C31.3987 5.7375 31.4322 5.68702 31.4823 5.65337C31.499 5.63655 31.5324 5.63655 31.5491 5.6029C31.6159 5.63655 31.6493 5.63655 31.666 5.63655Z" fill="#0C2444"/>
<path d="M36.3424 3.11279L34.9896 6.51156H34.2714L32.9186 3.11279H33.5532C33.62 3.11279 33.6868 3.12962 33.7202 3.16327C33.7704 3.1801 33.7871 3.23057 33.8038 3.29787L34.4551 5.11504C34.4718 5.19916 34.5219 5.28329 34.5386 5.36742C34.5553 5.45155 34.6054 5.5525 34.6221 5.67028C34.6388 5.56933 34.6722 5.4852 34.6889 5.36742C34.7056 5.28329 34.7557 5.18234 34.7724 5.11504L35.4238 3.29787C35.4405 3.2474 35.4739 3.21375 35.5073 3.16327C35.5574 3.11279 35.6075 3.11279 35.6743 3.11279C35.691 3.11279 36.3424 3.11279 36.3424 3.11279Z" fill="#0C2444"/>
<path d="M39.3486 6.49481H38.7307C38.6639 6.49481 38.5971 6.47798 38.5637 6.44433C38.5136 6.39385 38.4969 6.37703 38.4802 6.30973L38.2965 5.72083H37.0104L36.8267 6.30973C36.81 6.3602 36.7766 6.39385 36.7432 6.44433C36.6931 6.49481 36.643 6.49481 36.5762 6.49481H35.9583L37.261 3.09604H38.0626L39.3486 6.49481ZM37.3111 2.15381C37.3612 2.15381 37.3779 2.15381 37.3946 2.15381C37.4113 2.15381 37.4447 2.15381 37.4614 2.17063C37.4781 2.17063 37.5115 2.18746 37.5282 2.18746C37.5449 2.20429 37.5783 2.23794 37.595 2.25476L38.0793 2.89413H37.5449C37.5282 2.89413 37.4948 2.89413 37.4781 2.89413C37.4614 2.89413 37.428 2.89413 37.4113 2.89413C37.3946 2.89413 37.3612 2.87731 37.3612 2.87731C37.3445 2.87731 37.3111 2.86048 37.3111 2.82683L36.5595 2.15381C36.5762 2.15381 37.3111 2.15381 37.3111 2.15381ZM38.1127 5.19924L37.7954 4.27383C37.7787 4.20653 37.7453 4.13923 37.7119 4.0551C37.6952 3.97097 37.6618 3.88684 37.6284 3.80271C37.6117 3.88684 37.5783 3.9878 37.5449 4.0551C37.5282 4.13923 37.4948 4.20653 37.4614 4.27383L37.1441 5.19924H38.1127Z" fill="#0C2444"/>
<path d="M41.8873 3.11279C42.1378 3.11279 42.3883 3.16327 42.6055 3.2474C42.8226 3.33153 43.0063 3.46613 43.1566 3.60073C43.3069 3.75216 43.4238 3.93725 43.5073 4.13915C43.5908 4.34106 43.6409 4.55979 43.6409 4.81218C43.6409 5.06456 43.5908 5.28329 43.5073 5.4852C43.4238 5.70393 43.2902 5.87219 43.1566 6.02362C43.0063 6.17505 42.8226 6.29283 42.6055 6.37695C42.3883 6.46108 42.1378 6.51156 41.8873 6.51156H40.5846V5.03091H40.2004V4.61027H40.5846V3.12962C40.5846 3.11279 41.8873 3.11279 41.8873 3.11279ZM41.8873 5.90584C42.0376 5.90584 42.1545 5.88901 42.2881 5.82171C42.4217 5.77123 42.5052 5.68711 42.5887 5.60298C42.6723 5.51885 42.7391 5.38425 42.7725 5.26647C42.8226 5.13186 42.8393 4.96361 42.8393 4.79535C42.8393 4.62709 42.8226 4.47566 42.7725 4.35789C42.7224 4.22328 42.6723 4.1055 42.5887 4.02137C42.5052 3.93725 42.405 3.85312 42.2881 3.80264C42.1545 3.75216 42.0376 3.71851 41.8873 3.71851H41.3528V4.59344H41.9207V5.01408H41.3528V5.90584H41.8873Z" fill="#0C2444"/>
<path d="M47.0147 6.49481H46.3967C46.3299 6.49481 46.2631 6.47798 46.2297 6.44433C46.1796 6.39385 46.1629 6.37703 46.1462 6.30973L45.9625 5.72083H44.6765L44.4927 6.30973C44.476 6.3602 44.4426 6.39385 44.4092 6.44433C44.3591 6.49481 44.309 6.49481 44.2422 6.49481H43.6243L44.927 3.09604H45.7286L47.0147 6.49481ZM44.9437 2.15381C44.9938 2.15381 45.0105 2.15381 45.0272 2.15381C45.0439 2.15381 45.0773 2.15381 45.094 2.17063C45.1107 2.17063 45.1441 2.18746 45.1608 2.18746C45.1775 2.20429 45.2109 2.23794 45.2276 2.25476L45.712 2.89413H45.1775C45.1608 2.89413 45.1274 2.89413 45.1107 2.89413C45.094 2.89413 45.0606 2.89413 45.0439 2.89413C45.0272 2.89413 44.9938 2.87731 44.9938 2.87731C44.9771 2.87731 44.9437 2.86048 44.9437 2.82683L44.1921 2.15381C44.2088 2.15381 44.9437 2.15381 44.9437 2.15381ZM45.7621 5.19924L45.4447 4.27383C45.428 4.20653 45.3946 4.13923 45.3612 4.0551C45.3445 3.97097 45.3111 3.88684 45.2777 3.80271C45.261 3.88684 45.2276 3.9878 45.1942 4.0551C45.1775 4.13923 45.1441 4.20653 45.1107 4.27383L44.7934 5.19924H45.7621Z" fill="#0C2444"/>
<path d="M50.5887 4.81216C50.5887 5.06454 50.5386 5.28327 50.4551 5.48518C50.3716 5.70391 50.238 5.88899 50.1044 6.04042C49.9541 6.19185 49.7704 6.30963 49.5532 6.39376C49.3361 6.47789 49.0856 6.52836 48.8351 6.52836C48.5846 6.52836 48.334 6.47789 48.1169 6.39376C47.8998 6.30963 47.7161 6.17503 47.5658 6.04042C47.4154 5.88899 47.2985 5.70391 47.215 5.48518C47.1315 5.26645 47.0814 5.04771 47.0814 4.81216C47.0814 4.55977 47.1315 4.34104 47.215 4.13913C47.2985 3.9204 47.4322 3.73532 47.5658 3.58389C47.7161 3.43246 47.8998 3.31468 48.1169 3.23055C48.334 3.14642 48.5846 3.09595 48.8351 3.09595C49.0856 3.09595 49.3361 3.14642 49.5532 3.23055C49.7704 3.31468 49.9541 3.44928 50.1044 3.58389C50.2547 3.73532 50.3716 3.9204 50.4551 4.13913C50.5553 4.34104 50.5887 4.5766 50.5887 4.81216ZM49.7871 4.81216C49.7871 4.6439 49.7704 4.49247 49.7203 4.37469C49.6702 4.24009 49.62 4.12231 49.5365 4.03818C49.453 3.95405 49.3528 3.86992 49.2359 3.81945C49.1023 3.76897 48.9854 3.73532 48.8351 3.73532C48.6848 3.73532 48.5344 3.75214 48.4342 3.81945C48.3006 3.86992 48.2171 3.95405 48.1336 4.03818C48.0501 4.12231 47.9833 4.25691 47.9499 4.37469C47.8998 4.5093 47.8831 4.6439 47.8831 4.81216C47.8831 4.98041 47.8998 5.13184 47.9499 5.24962C48 5.38423 48.0501 5.502 48.1336 5.58613C48.2171 5.67026 48.3173 5.75439 48.4342 5.80486C48.5679 5.85534 48.6848 5.87217 48.8351 5.87217C48.9854 5.87217 49.1023 5.85534 49.2359 5.80486C49.3695 5.75439 49.453 5.67026 49.5365 5.58613C49.62 5.502 49.6869 5.3674 49.7203 5.24962C49.7704 5.11502 49.7871 4.98041 49.7871 4.81216Z" fill="#0C2444"/>
<path d="M54.3967 3.75218H53.4447V6.5284H52.6597V3.75218H51.691V3.12964H54.3633V3.75218H54.3967Z" fill="#0C2444"/>
<path d="M57.4697 6.49471H56.8518C56.785 6.49471 56.7182 6.47789 56.6848 6.44424C56.6347 6.39376 56.618 6.37693 56.6013 6.30963L56.4176 5.72074H55.1315L54.9478 6.30963C54.9311 6.36011 54.8977 6.39376 54.8643 6.44424C54.8142 6.49471 54.7641 6.49471 54.6973 6.49471H54.0793L55.3821 3.09595H56.1837L57.4697 6.49471ZM56.2338 5.19914L55.9165 4.27374C55.8998 4.20644 55.8664 4.13913 55.833 4.05501C55.8163 3.97088 55.7829 3.88675 55.7495 3.80262C55.7328 3.88675 55.6994 3.9877 55.666 4.05501C55.6493 4.13913 55.6159 4.20644 55.5825 4.27374L55.2652 5.19914H56.2338ZM56.1503 7.04996C56.1503 7.10043 56.1503 7.15091 56.1336 7.20139C56.1169 7.25186 56.0835 7.28552 56.0501 7.30234C56 7.35282 55.9666 7.36964 55.9165 7.38647C55.8664 7.40329 55.8163 7.40329 55.7662 7.40329C55.7161 7.40329 55.666 7.40329 55.6159 7.38647C55.5658 7.36964 55.5324 7.33599 55.4823 7.30234C55.4322 7.26869 55.4155 7.23504 55.3988 7.20139C55.3821 7.15091 55.3821 7.11726 55.3821 7.04996C55.3821 6.99948 55.3821 6.949 55.3988 6.89853C55.4155 6.84805 55.4489 6.8144 55.4823 6.79757C55.5324 6.7471 55.5491 6.73027 55.6159 6.71345C55.6827 6.69662 55.6994 6.69662 55.7662 6.69662C55.8163 6.69662 55.8664 6.69662 55.9165 6.71345C55.9666 6.73027 56 6.76392 56.0501 6.79757C56.1002 6.84805 56.1169 6.86488 56.1336 6.89853C56.1336 6.949 56.1503 6.98266 56.1503 7.04996Z" fill="#0C2444"/>
<path d="M61.0439 4.81216C61.0439 5.06454 60.9938 5.28327 60.9103 5.48518C60.8268 5.70391 60.6932 5.88899 60.5596 6.04042C60.4093 6.19185 60.2256 6.30963 60.0084 6.39376C59.7913 6.47789 59.5408 6.52836 59.2903 6.52836C59.0398 6.52836 58.7892 6.47789 58.5721 6.39376C58.355 6.30963 58.1713 6.17503 58.021 6.04042C57.8706 5.88899 57.7537 5.70391 57.6702 5.48518C57.5867 5.26645 57.5366 5.04771 57.5366 4.81216C57.5366 4.55977 57.5867 4.34104 57.6702 4.13913C57.7537 3.9204 57.8874 3.73532 58.021 3.58389C58.1713 3.43246 58.355 3.31468 58.5721 3.23055C58.7892 3.14642 59.0398 3.09595 59.2903 3.09595C59.5408 3.09595 59.7913 3.14642 60.0084 3.23055C60.2256 3.31468 60.4093 3.44928 60.5596 3.58389C60.7099 3.73532 60.8268 3.9204 60.9103 4.13913C61.0105 4.34104 61.0439 4.5766 61.0439 4.81216ZM60.259 4.81216C60.259 4.6439 60.2423 4.49247 60.1922 4.37469C60.142 4.24009 60.0919 4.12231 60.0084 4.03818C59.9249 3.95405 59.8247 3.86992 59.7078 3.81945C59.5742 3.76897 59.4573 3.73532 59.307 3.73532C59.1567 3.73532 59.0064 3.75214 58.9061 3.81945C58.7725 3.86992 58.689 3.95405 58.6055 4.03818C58.522 4.12231 58.4552 4.25691 58.4218 4.37469C58.3717 4.5093 58.355 4.6439 58.355 4.81216C58.355 4.98041 58.3717 5.13184 58.4218 5.24962C58.4719 5.38423 58.522 5.502 58.6055 5.58613C58.689 5.67026 58.7892 5.75439 58.9061 5.80486C59.0398 5.85534 59.1567 5.87217 59.307 5.87217C59.4573 5.87217 59.5742 5.85534 59.7078 5.80486C59.8414 5.75439 59.9249 5.67026 60.0084 5.58613C60.0919 5.502 60.1587 5.3674 60.1922 5.24962C60.2256 5.11502 60.259 4.98041 60.259 4.81216Z" fill="#0C2444"/>
<path d="M65.5199 3.11279V6.51156H64.7349V5.06456H63.3654V6.51156H62.5804V3.11279H63.3654V4.52614H64.7349V3.11279H65.5199Z" fill="#0C2444"/>
<path d="M69.1942 6.49481H68.5763C68.5095 6.49481 68.4427 6.47798 68.4093 6.44433C68.3592 6.39385 68.3425 6.37703 68.3258 6.30973L68.142 5.72083H66.856L66.6723 6.30973C66.6556 6.3602 66.6222 6.39385 66.5888 6.44433C66.5387 6.49481 66.4886 6.49481 66.4218 6.49481H65.8038L67.1065 3.09604H67.9082L69.1942 6.49481ZM67.1399 2.15381C67.1901 2.15381 67.2068 2.15381 67.2235 2.15381C67.2402 2.15381 67.2736 2.15381 67.2903 2.17063C67.307 2.17063 67.3404 2.18746 67.3571 2.18746C67.3738 2.20429 67.4072 2.23794 67.4239 2.25476L67.9082 2.89413H67.3738C67.3571 2.89413 67.3237 2.89413 67.307 2.89413C67.2903 2.89413 67.2569 2.89413 67.2402 2.89413C67.2235 2.89413 67.1901 2.87731 67.1901 2.87731C67.1734 2.87731 67.1399 2.86048 67.1399 2.82683L66.3884 2.15381C66.4051 2.15381 67.1399 2.15381 67.1399 2.15381ZM67.9583 5.19924L67.641 4.27383C67.6243 4.20653 67.5909 4.13923 67.5575 4.0551C67.5408 3.97097 67.5074 3.88684 67.474 3.80271C67.4573 3.88684 67.4239 3.9878 67.3905 4.0551C67.3738 4.13923 67.3404 4.20653 67.307 4.27383L66.9896 5.19924H67.9583Z" fill="#0C2444"/>
<path d="M73.3194 3.11279V6.51156H72.9186C72.8518 6.51156 72.8184 6.51156 72.7683 6.49473C72.7182 6.47791 72.6848 6.42743 72.6347 6.39378L71.048 4.37471C71.048 4.44201 71.048 4.50932 71.0647 4.54297C71.0647 4.61027 71.0647 4.64392 71.0647 4.71122V6.52838H70.3633V3.12962H70.7808C70.8309 3.12962 70.8476 3.12962 70.8643 3.12962C70.881 3.12962 70.9144 3.12962 70.9311 3.14644C70.9478 3.14644 70.9812 3.16327 70.9979 3.19692C71.0146 3.23057 71.048 3.2474 71.0647 3.26422L72.6681 5.30012C72.6681 5.23282 72.6514 5.16551 72.6514 5.11504C72.6514 5.04773 72.6514 4.98043 72.6514 4.94678V3.12962H73.3027V3.11279H73.3194Z" fill="#0C2444"/>
<path d="M77.2777 4.81211C77.2777 5.06449 77.2276 5.28322 77.1441 5.48513C77.0606 5.70386 76.927 5.88894 76.7933 6.04037C76.643 6.1918 76.4593 6.30958 76.2422 6.39371C76.0251 6.47784 75.7746 6.52831 75.524 6.52831C75.2735 6.52831 75.023 6.47784 74.8059 6.39371C74.5888 6.30958 74.405 6.17498 74.2547 6.04037C74.1044 5.88894 73.9875 5.70386 73.904 5.48513C73.8205 5.2664 73.7704 5.04766 73.7704 4.81211C73.7704 4.55972 73.8205 4.34099 73.904 4.13908C73.9875 3.93718 74.1211 3.73527 74.2547 3.58384C74.405 3.43241 74.5888 3.31463 74.8059 3.2305C75.023 3.14637 75.2735 3.0959 75.524 3.0959C75.7746 3.0959 76.0251 3.14637 76.2422 3.2305C76.4593 3.31463 76.643 3.44923 76.7933 3.58384C76.9437 3.73527 77.0606 3.92035 77.1441 4.13908C77.2443 4.34099 77.2777 4.57655 77.2777 4.81211ZM76.476 4.81211C76.476 4.64385 76.4593 4.49242 76.4092 4.37464C76.3591 4.24004 76.309 4.12226 76.2255 4.03813C76.142 3.954 76.0418 3.86987 75.9249 3.8194C75.7913 3.76892 75.6744 3.73527 75.524 3.73527C75.3737 3.73527 75.2234 3.75209 75.1232 3.8194C74.9896 3.86987 74.9061 3.954 74.8226 4.03813C74.7391 4.12226 74.6723 4.25686 74.6389 4.37464C74.5888 4.50925 74.5721 4.64385 74.5721 4.81211C74.5721 4.98036 74.5888 5.13179 74.6389 5.24957C74.689 5.38418 74.7391 5.50195 74.8226 5.58608C74.9061 5.67021 75.0063 5.75434 75.1232 5.80481C75.2568 5.85529 75.3737 5.87212 75.524 5.87212C75.6744 5.87212 75.7913 5.85529 75.9249 5.80481C76.0585 5.75434 76.142 5.67021 76.2255 5.58608C76.309 5.50195 76.3758 5.36735 76.4092 5.24957C76.4593 5.11497 76.476 4.98036 76.476 4.81211ZM76.4426 2.89399H75.9082C75.8915 2.89399 75.8414 2.89399 75.808 2.87716C75.7579 2.87716 75.7245 2.82669 75.6744 2.79304L75.5741 2.60796C75.5741 2.59113 75.5574 2.59113 75.5574 2.59113L75.5407 2.5743C75.5407 2.59113 75.524 2.59113 75.524 2.59113L75.5073 2.60796L75.4071 2.79304C75.357 2.84351 75.3236 2.87716 75.2735 2.87716C75.2234 2.87716 75.19 2.89399 75.1733 2.89399H74.6723L75.2401 2.23779H75.8915L76.4426 2.89399ZM75.9082 7.04991C75.9082 7.10038 75.9082 7.15086 75.8915 7.20134C75.8748 7.25181 75.8414 7.28547 75.808 7.30229C75.7579 7.31912 75.7245 7.36959 75.6744 7.38642C75.6242 7.40324 75.5741 7.40324 75.524 7.40324C75.4739 7.40324 75.4238 7.40324 75.3737 7.38642C75.3236 7.36959 75.2902 7.33594 75.2401 7.30229C75.19 7.25181 75.1733 7.23499 75.1566 7.20134C75.1399 7.15086 75.1399 7.11721 75.1399 7.04991C75.1399 6.99943 75.1399 6.94895 75.1566 6.89848C75.1733 6.848 75.2067 6.81435 75.2401 6.79752C75.2902 6.74705 75.3069 6.73022 75.3737 6.7134C75.4405 6.69657 75.4572 6.69657 75.524 6.69657C75.5741 6.69657 75.6242 6.69657 75.6744 6.7134C75.7245 6.73022 75.7579 6.76387 75.808 6.79752C75.8581 6.848 75.8748 6.86483 75.8915 6.89848C75.8915 6.94895 75.9082 6.98261 75.9082 7.04991Z" fill="#0C2444"/>
<path d="M78.5303 6.49473H77.7454V3.11279H78.5303V6.49473Z" fill="#0C2444"/>
<path d="M4.09183 55.4234H3.29016V57.779H2.63881V55.4234H1.82043V54.885H4.09183V55.4234Z" fill="#0C2444"/>
<path d="M6.73066 57.779H6.14611C6.0459 57.779 5.96239 57.7286 5.91229 57.6444L5.42795 56.82C5.41125 56.7695 5.37784 56.7527 5.34444 56.7359C5.32774 56.719 5.27763 56.719 5.21083 56.719H5.04381V57.779H4.39246V54.9187H5.31104C5.52816 54.9187 5.69517 54.9355 5.84548 54.986C5.9958 55.0365 6.11271 55.087 6.19621 55.1543C6.27972 55.2384 6.36323 55.3225 6.41333 55.4235C6.46344 55.5244 6.48014 55.6422 6.48014 55.76C6.48014 55.8441 6.46344 55.9451 6.43003 56.0124C6.41333 56.0797 6.36323 56.1806 6.32983 56.2479C6.29642 56.3152 6.22962 56.3825 6.14611 56.433C6.0626 56.5003 5.9958 56.534 5.89559 56.5676C5.94569 56.5844 5.97909 56.6181 6.0292 56.6517C6.0793 56.7022 6.09601 56.719 6.12941 56.7863L6.73066 57.779ZM5.34444 56.2479C5.42795 56.2479 5.51145 56.2311 5.57826 56.1974C5.64507 56.1806 5.67847 56.1301 5.72857 56.0965C5.77868 56.046 5.79538 56.0124 5.81208 55.9451C5.82878 55.8778 5.82878 55.8441 5.82878 55.7768C5.82878 55.6422 5.77868 55.5413 5.69517 55.4739C5.61166 55.4066 5.47805 55.373 5.31104 55.373H5.04381V56.2143H5.34444V56.2479Z" fill="#0C2444"/>
<path d="M8.15034 57.2574C8.23384 57.2574 8.31735 57.2406 8.38416 57.2069C8.45096 57.1901 8.51777 57.1396 8.55117 57.0723C8.60128 57.005 8.63468 56.9377 8.65138 56.8536C8.66808 56.7695 8.70148 56.6853 8.70148 56.5844V54.885H9.35284V56.5844C9.35284 56.7526 9.33614 56.9209 9.26933 57.0723C9.20253 57.2238 9.11902 57.3415 9.01881 57.4593C8.9186 57.5603 8.78499 57.6444 8.63468 57.7117C8.48437 57.779 8.31735 57.7958 8.13364 57.7958C7.94992 57.7958 7.7829 57.779 7.63259 57.7117C7.48228 57.6444 7.36537 57.5603 7.24846 57.4593C7.13155 57.3584 7.06474 57.2238 6.99794 57.0723C6.93113 56.9209 6.91443 56.7526 6.91443 56.5844V54.885H7.56579V56.5844C7.56579 56.6853 7.58249 56.7695 7.61589 56.8536C7.63259 56.9377 7.6827 57.005 7.7161 57.0723C7.7662 57.1396 7.81631 57.1733 7.88311 57.2069C7.98332 57.2238 8.06683 57.2574 8.15034 57.2574Z" fill="#0C2444"/>
<path d="M12.3757 54.9018V57.7622H12.0417C11.9916 57.7622 11.9582 57.7622 11.9081 57.7454C11.858 57.7285 11.8413 57.6949 11.8079 57.6612L10.4551 55.945C10.4551 55.9955 10.4551 56.046 10.4718 56.0964C10.4718 56.1469 10.4718 56.1806 10.4718 56.2311V57.779H9.88721V54.9187H10.2212C10.2379 54.9187 10.288 54.9187 10.288 54.9187C10.288 54.9187 10.3381 54.9187 10.3548 54.9355C10.3715 54.9355 10.3715 54.9523 10.405 54.9523C10.4217 54.9691 10.4217 54.9691 10.4551 55.0196L11.8079 56.7358C11.8079 56.6685 11.7912 56.6349 11.7912 56.5676C11.7912 56.5171 11.7912 56.4666 11.7912 56.4161V54.885H12.4091V54.9018H12.3757Z" fill="#0C2444"/>
<path d="M14.2964 56.2983H15.3152V57.5098C15.1649 57.6107 15.0146 57.6949 14.8476 57.7453C14.6806 57.7958 14.5136 57.8126 14.3131 57.8126C14.0793 57.8126 13.8789 57.7622 13.6785 57.7117C13.4948 57.6276 13.3278 57.5434 13.1941 57.392C13.0438 57.2574 12.9436 57.1228 12.8768 56.9209C12.7933 56.7526 12.7766 56.5339 12.7766 56.332C12.7766 56.1301 12.8267 55.9282 12.8768 55.7431C12.9436 55.5748 13.0438 55.4066 13.1774 55.272C13.3111 55.1374 13.4781 55.0364 13.6618 54.9691C13.8455 54.9018 14.0626 54.8682 14.2964 54.8682C14.4301 54.8682 14.5303 54.8682 14.6305 54.885C14.7307 54.9018 14.8476 54.9355 14.9311 54.9691C15.0146 55.0196 15.0981 55.0532 15.1649 55.1037C15.2317 55.1542 15.3152 55.2047 15.3486 55.2552L15.1649 55.558C15.1482 55.6085 15.0981 55.6421 15.0313 55.6421C14.9812 55.659 14.9311 55.6421 14.881 55.5917C14.8309 55.5748 14.7808 55.5244 14.7307 55.5075C14.6806 55.4907 14.6472 55.4571 14.5804 55.4402C14.5303 55.4234 14.4802 55.4234 14.4301 55.4234C14.3633 55.4234 14.3298 55.4234 14.2463 55.4234C14.1127 55.4234 14.0125 55.4402 13.9123 55.4907C13.8121 55.5412 13.7286 55.5917 13.6618 55.6758C13.595 55.7599 13.5282 55.844 13.4948 55.9787C13.4447 56.0796 13.428 56.2142 13.428 56.3656C13.428 56.5171 13.4447 56.6685 13.4948 56.7695C13.5449 56.9041 13.595 56.9882 13.6618 57.0723C13.7453 57.1564 13.8288 57.2237 13.929 57.2574C14.0292 57.3079 14.1628 57.3247 14.2797 57.3247C14.3633 57.3247 14.4301 57.3247 14.4969 57.3079C14.5637 57.291 14.6305 57.2574 14.6806 57.2406V56.8031H14.4301C14.38 56.8031 14.3465 56.7863 14.3298 56.7526C14.3131 56.7358 14.2797 56.7021 14.2797 56.6685V56.2983H14.2964Z" fill="#0C2444"/>
<path d="M18.5887 55.4234H17.787V57.779H17.1357V55.4234H16.334V54.885H18.6054L18.5887 55.4234Z" fill="#0C2444"/>
<path d="M21.2275 57.7791H20.7265C20.6597 57.7791 20.6263 57.7623 20.5762 57.7287C20.5261 57.7118 20.5094 57.6614 20.4927 57.6277L20.3257 57.1229H19.2234L19.0564 57.6277C19.0397 57.6782 19.0062 57.695 18.9728 57.7287C18.9227 57.7455 18.8893 57.7791 18.8225 57.7791H18.2881L19.3904 54.9188H20.0584L21.2275 57.7791ZM20.5261 54.7337H20.0918C20.0751 54.7337 20.0417 54.7337 20.0083 54.7169C19.9582 54.7001 19.9415 54.6664 19.9081 54.6328L19.8079 54.4813L19.7912 54.4645L19.7745 54.4477L19.7578 54.4645L19.7411 54.4813L19.6409 54.6328C19.5908 54.6832 19.5741 54.7001 19.5407 54.7169C19.4906 54.7337 19.4739 54.7337 19.4572 54.7337H19.0397L19.524 54.1785H20.0751L20.5261 54.7337ZM20.1754 56.6855L19.9081 55.8947C19.8914 55.8442 19.858 55.7937 19.8413 55.7264C19.8246 55.6591 19.7912 55.575 19.7745 55.5077C19.7578 55.5918 19.7244 55.6591 19.7077 55.7432C19.691 55.8105 19.6576 55.8778 19.6409 55.9115L19.3904 56.7023H20.1754V56.6855Z" fill="#0C2444"/>
<path d="M24.6514 54.9019V57.7622H24.0668V56.1133C24.0668 56.0628 24.0668 56.0292 24.0668 55.9787C24.0668 55.9282 24.0668 55.8946 24.0835 55.8441L23.332 57.3247C23.3153 57.3752 23.2652 57.4089 23.2318 57.4257C23.1817 57.4425 23.1483 57.4762 23.0981 57.4762H23.0146C22.9645 57.4762 22.9144 57.4593 22.881 57.4257C22.8309 57.4089 22.8142 57.3584 22.7808 57.3247L22.0293 55.8441C22.0293 55.8946 22.0293 55.9282 22.0293 55.9955C22.0293 56.046 22.0293 56.0796 22.0293 56.1301V57.779H21.4447V54.9187H21.9457C21.9624 54.9187 22.0126 54.9187 22.0293 54.9187C22.046 54.9187 22.0794 54.9187 22.0961 54.9355C22.1128 54.9355 22.1462 54.9523 22.1462 54.9523C22.1629 54.9692 22.1629 55.0028 22.1963 55.0196L22.9311 56.4835C22.9478 56.5339 22.9812 56.5844 23.0146 56.6349C23.0313 56.7022 23.0647 56.7358 23.0814 56.8031C23.0981 56.7358 23.1316 56.7022 23.1483 56.6349C23.165 56.5676 23.1984 56.5339 23.2318 56.4835L23.9666 55.0365C23.9833 55.0196 23.9833 54.986 24.0167 54.9692C24.0334 54.9523 24.0334 54.9523 24.0668 54.9523C24.0835 54.9523 24.1169 54.9523 24.1336 54.9355C24.1503 54.9355 24.1837 54.9355 24.2171 54.9355H24.7015V54.9019H24.6514Z" fill="#0C2444"/>
<path d="M28.5929 54.9018V57.7622H28.2589C28.2088 57.7622 28.1753 57.7622 28.1252 57.7454C28.0751 57.7285 28.0584 57.6949 28.025 57.6612L26.6722 55.945C26.6722 55.9955 26.6722 56.046 26.6889 56.0964C26.6889 56.1469 26.6889 56.1806 26.6889 56.2311V57.779H26.1044V54.9187H26.4551C26.4718 54.9187 26.5219 54.9187 26.5219 54.9187C26.5219 54.9187 26.572 54.9187 26.5887 54.9355C26.6054 54.9355 26.6054 54.9523 26.6388 54.9523C26.6555 54.9691 26.6555 54.9691 26.6889 55.0196L28.0417 56.7358C28.0417 56.6685 28.025 56.6349 28.025 56.5676C28.025 56.5171 28.025 56.4666 28.025 56.4161V54.885H28.6096L28.5929 54.9018Z" fill="#0C2444"/>
<path d="M30.5135 56.2983H31.5323V57.5098C31.382 57.6107 31.2316 57.6949 31.0646 57.7453C30.8976 57.7958 30.7306 57.8126 30.5302 57.8126C30.2964 57.8126 30.0959 57.7622 29.8955 57.7117C29.7118 57.6276 29.5448 57.5434 29.4112 57.392C29.2609 57.2574 29.1607 57.1228 29.0939 56.9209C29.0104 56.7526 28.9937 56.5339 28.9937 56.332C28.9937 56.1301 29.0438 55.9282 29.0939 55.7431C29.1607 55.5748 29.2609 55.4066 29.3945 55.272C29.5281 55.1374 29.6951 55.0364 29.8788 54.9691C30.0625 54.9018 30.2797 54.8682 30.5135 54.8682C30.6471 54.8682 30.7473 54.8682 30.8475 54.885C30.9477 54.9018 31.0646 54.9355 31.1481 54.9691C31.2316 55.0196 31.3152 55.0532 31.382 55.1037C31.4488 55.1542 31.5323 55.2047 31.5657 55.2552L31.382 55.558C31.3653 55.6085 31.3152 55.6421 31.2483 55.6421C31.1982 55.659 31.1481 55.6421 31.098 55.5917C31.0479 55.5748 30.9978 55.5244 30.9477 55.5075C30.8976 55.4907 30.8642 55.4571 30.7974 55.4402C30.7473 55.4234 30.6972 55.4234 30.6471 55.4234C30.5803 55.4234 30.5469 55.4234 30.4634 55.4234C30.3298 55.4234 30.2296 55.4402 30.1293 55.4907C30.0291 55.5412 29.9456 55.5917 29.8788 55.6758C29.812 55.7599 29.7452 55.844 29.7118 55.9787C29.6617 56.0796 29.645 56.2142 29.645 56.3656C29.645 56.5171 29.6617 56.6685 29.7118 56.7695C29.7619 56.9041 29.812 56.9882 29.8788 57.0723C29.9623 57.1564 30.0458 57.2237 30.1461 57.2574C30.2463 57.3079 30.3799 57.3247 30.4968 57.3247C30.5803 57.3247 30.6471 57.3247 30.7139 57.3079C30.7807 57.291 30.8475 57.2574 30.8976 57.2406V56.8031H30.6471C30.597 56.8031 30.5636 56.7863 30.5469 56.7526C30.5302 56.7358 30.4968 56.7021 30.4968 56.6685L30.5135 56.2983Z" fill="#0C2444"/>
<path d="M34.7724 56.332C34.7724 56.5507 34.7223 56.7358 34.6722 56.9041C34.6054 57.0723 34.5052 57.2406 34.3716 57.3752C34.238 57.5098 34.071 57.6107 33.9039 57.6949C33.7202 57.779 33.5198 57.7958 33.286 57.7958C33.0522 57.7958 32.8685 57.7453 32.668 57.6949C32.4843 57.6276 32.334 57.5266 32.2004 57.3752C32.0668 57.2406 31.9666 57.0723 31.8998 56.9041C31.833 56.7358 31.7996 56.5171 31.7996 56.332C31.7996 56.1469 31.8497 55.9282 31.8998 55.7599C31.9499 55.5917 32.0668 55.4234 32.2004 55.2888C32.334 55.1542 32.501 55.0532 32.668 54.9691C32.8351 54.885 33.0522 54.8682 33.286 54.8682C33.5198 54.8682 33.7035 54.9186 33.9039 54.9691C34.0877 55.0532 34.238 55.1374 34.3716 55.2888C34.5052 55.4234 34.6054 55.5917 34.6722 55.7599C34.739 55.945 34.7724 56.1301 34.7724 56.332ZM34.1044 56.332C34.1044 56.1806 34.0877 56.0628 34.0376 55.945C33.9875 55.844 33.954 55.7263 33.8872 55.6421C33.8204 55.558 33.7369 55.4907 33.6367 55.4571C33.5365 55.4066 33.4196 55.3898 33.3027 55.3898C33.1858 55.3898 33.0689 55.4066 32.9687 55.4571C32.8685 55.5075 32.7849 55.558 32.7181 55.6421C32.6513 55.7263 32.5845 55.8104 32.5678 55.945C32.5177 56.046 32.501 56.1806 32.501 56.332C32.501 56.4834 32.5177 56.6012 32.5678 56.719C32.6179 56.8199 32.6513 56.9377 32.7181 57.0218C32.7849 57.106 32.8685 57.1733 32.9687 57.2069C33.0689 57.2574 33.1858 57.2742 33.3027 57.2742C33.4196 57.2742 33.5365 57.2574 33.6367 57.2069C33.7369 57.1564 33.8204 57.106 33.8872 57.0218C33.954 56.9377 34.0209 56.8536 34.0376 56.719C34.0877 56.618 34.1044 56.4834 34.1044 56.332Z" fill="#0C2444"/>
<path d="M37.6284 57.779H37.1274C37.0606 57.779 37.0272 57.7622 36.9771 57.7286C36.927 57.7117 36.9103 57.6613 36.8936 57.6276L36.7265 57.1229H35.6242L35.4572 57.6276C35.4405 57.6781 35.4071 57.6949 35.3737 57.7286C35.3236 57.7454 35.2902 57.779 35.2234 57.779H34.689L35.7913 54.9187H36.4593L37.6284 57.779ZM36.5762 56.6854L36.309 55.8946C36.2923 55.8441 36.2589 55.7936 36.2422 55.7263C36.2255 55.659 36.1921 55.5749 36.1754 55.5076C36.1587 55.5917 36.1253 55.659 36.1086 55.7432C36.0919 55.8105 36.0585 55.8778 36.0418 55.9114L35.7913 56.7022H36.5762V56.6854ZM36.5094 58.2333C36.5094 58.2838 36.5094 58.3175 36.4927 58.3679C36.476 58.4184 36.4426 58.4352 36.4259 58.4689C36.4092 58.4857 36.3591 58.5194 36.3257 58.5362C36.2756 58.553 36.2422 58.553 36.1921 58.553C36.142 58.553 36.1086 58.553 36.0585 58.5362C36.0084 58.5194 35.9917 58.4857 35.9583 58.4689C35.9416 58.4521 35.9082 58.4016 35.8915 58.3679C35.8748 58.3343 35.8748 58.2838 35.8748 58.2333C35.8748 58.1829 35.8748 58.1492 35.8915 58.0987C35.9082 58.0483 35.9416 58.0314 35.9583 57.9978C35.975 57.981 36.0251 57.9473 36.0585 57.9305C36.0919 57.9137 36.142 57.9137 36.1921 57.9137C36.2422 57.9137 36.2756 57.9137 36.3257 57.9305C36.3758 57.9473 36.3925 57.981 36.4259 57.9978C36.4426 58.0146 36.476 58.0651 36.4927 58.0987C36.4927 58.1492 36.5094 58.1829 36.5094 58.2333Z" fill="#0C2444"/>
<path d="M38.5302 57.779H37.8622V54.9187H38.5302V57.779Z" fill="#0C2444"/>
<path d="M42.4551 54.9018V57.7622H42.121C42.0709 57.7622 42.0375 57.7622 41.9874 57.7454C41.9373 57.7285 41.9206 57.6949 41.8872 57.6612L40.5344 55.945C40.5344 55.9955 40.5344 56.046 40.5511 56.0964C40.5511 56.1469 40.5511 56.1806 40.5511 56.2311V57.779H39.9666V54.9187H40.3173C40.334 54.9187 40.3841 54.9187 40.3841 54.9187C40.3841 54.9187 40.4342 54.9187 40.4509 54.9355C40.4676 54.9355 40.4676 54.9523 40.501 54.9523C40.5177 54.9691 40.5177 54.9691 40.5511 55.0196L41.9039 56.7358C41.9039 56.6685 41.8872 56.6349 41.8872 56.5676C41.8872 56.5171 41.8872 56.4666 41.8872 56.4161V54.885H42.4718L42.4551 54.9018Z" fill="#0C2444"/>
<path d="M44.3758 56.2983H45.3946V57.5098C45.2443 57.6107 45.094 57.6949 44.9269 57.7453C44.7599 57.7958 44.5929 57.8126 44.3925 57.8126C44.1587 57.8126 43.9583 57.7622 43.7578 57.7117C43.5741 57.6276 43.4071 57.5434 43.2735 57.392C43.1232 57.2574 43.023 57.1228 42.9562 56.9209C42.8727 56.7526 42.856 56.5339 42.856 56.332C42.856 56.1301 42.9061 55.9282 42.9562 55.7431C43.023 55.5748 43.1232 55.4066 43.2568 55.272C43.3904 55.1374 43.5574 55.0364 43.7411 54.9691C43.9248 54.9018 44.142 54.8682 44.3758 54.8682C44.5094 54.8682 44.6096 54.8682 44.7098 54.885C44.81 54.9018 44.9269 54.9355 45.0104 54.9691C45.094 55.0196 45.1775 55.0532 45.2443 55.1037C45.3111 55.1542 45.3946 55.2047 45.428 55.2552L45.2443 55.558C45.2276 55.6085 45.1775 55.6421 45.1107 55.6421C45.0605 55.659 45.0104 55.6421 44.9603 55.5917C44.9102 55.5748 44.8601 55.5244 44.81 55.5075C44.7599 55.4907 44.7265 55.4571 44.6597 55.4402C44.6096 55.4234 44.5595 55.4234 44.5094 55.4234C44.4426 55.4234 44.4092 55.4234 44.3257 55.4234C44.1921 55.4234 44.0919 55.4402 43.9917 55.4907C43.8914 55.5412 43.8079 55.5917 43.7411 55.6758C43.6743 55.7599 43.6075 55.844 43.5741 55.9787C43.524 56.0796 43.5073 56.2142 43.5073 56.3656C43.5073 56.5171 43.524 56.6685 43.5741 56.7695C43.6242 56.9041 43.6743 56.9882 43.7411 57.0723C43.8246 57.1564 43.9081 57.2237 44.0084 57.2574C44.1086 57.3079 44.2422 57.3247 44.3591 57.3247C44.4426 57.3247 44.5094 57.3247 44.5762 57.3079C44.643 57.291 44.7098 57.2574 44.7599 57.2406V56.8031H44.4927C44.4426 56.8031 44.4092 56.7863 44.3925 56.7526C44.3758 56.7358 44.3424 56.7021 44.3424 56.6685V56.332H44.3758V56.2983Z" fill="#0C2444"/>
<path d="M49.1189 54.5991C49.1189 54.6159 49.1356 54.6664 49.1356 54.7C49.1356 54.7337 49.1356 54.7842 49.1356 54.8346C49.1356 54.9356 49.1189 55.0197 49.0855 55.1375C49.0688 55.2385 49.002 55.3058 48.9352 55.3731C48.8684 55.4404 48.7682 55.5077 48.668 55.5413C48.5678 55.5918 48.4175 55.6086 48.2671 55.6086V56.6013C48.2671 56.7696 48.2504 56.9378 48.1836 57.0893C48.1168 57.2407 48.0333 57.3585 47.9331 57.4763C47.8329 57.5772 47.6993 57.6613 47.549 57.7286C47.3987 57.7959 47.2317 57.8128 47.0479 57.8128C46.8642 57.8128 46.6972 57.7959 46.5469 57.7286C46.3966 57.6613 46.2797 57.5772 46.1628 57.4763C46.0626 57.3753 45.979 57.2407 45.9122 57.0893C45.8454 56.9378 45.8287 56.7696 45.8287 56.6013V54.9019H46.4801V56.6013C46.4801 56.7023 46.4968 56.7864 46.5302 56.8705C46.5636 56.9547 46.597 57.022 46.6304 57.0893C46.6805 57.1566 46.7306 57.1902 46.7974 57.2239C46.8642 57.2407 46.9477 57.2744 47.0312 57.2744C47.1147 57.2744 47.1983 57.2575 47.2651 57.2239C47.3319 57.2071 47.3987 57.1566 47.4321 57.0893C47.4822 57.022 47.5156 56.9547 47.5323 56.8705C47.549 56.7864 47.5824 56.7023 47.5824 56.6013V54.9019H48.2337V55.3058C48.334 55.3058 48.4175 55.2889 48.4676 55.2385C48.5177 55.188 48.5344 55.1543 48.5344 55.1039C48.5344 55.087 48.5344 55.0534 48.5177 55.0366C48.5177 55.0197 48.501 54.9861 48.501 54.9693C48.501 54.9524 48.4843 54.9188 48.4843 54.9019C48.4843 54.8851 48.4676 54.8346 48.4676 54.8178C48.4676 54.7337 48.4843 54.6832 48.5511 54.6496C48.6012 54.5991 48.6847 54.5823 48.7849 54.5823L49.1189 54.5991ZM47.2985 54.3635C47.3152 54.3635 47.3653 54.3635 47.3653 54.3467C47.3653 54.3299 47.4154 54.3299 47.4154 54.2962C47.4321 54.2794 47.4321 54.2457 47.4321 54.2289C47.4321 54.2121 47.4321 54.1784 47.4321 54.1616H47.7828C47.7828 54.2289 47.7828 54.3131 47.7661 54.3804C47.7494 54.4477 47.716 54.515 47.6826 54.5486C47.6325 54.5991 47.5991 54.6327 47.5323 54.6832C47.4655 54.7 47.3987 54.7337 47.3486 54.7337C47.2985 54.7337 47.215 54.7337 47.1649 54.7169C47.1147 54.7 47.0646 54.6664 47.0145 54.6496C46.9644 54.6327 46.931 54.5991 46.9143 54.5823C46.8642 54.5654 46.8475 54.5654 46.8141 54.5654C46.7974 54.5654 46.7473 54.5654 46.7473 54.5823C46.7306 54.5991 46.6972 54.5991 46.6972 54.6327C46.6805 54.6496 46.6805 54.6832 46.6805 54.7C46.6805 54.7169 46.6805 54.7505 46.6805 54.7673H46.2964C46.2964 54.7 46.2964 54.6159 46.3131 54.5486C46.3298 54.4813 46.3632 54.414 46.3966 54.3804C46.4467 54.3299 46.4801 54.2962 46.5469 54.2457C46.6137 54.2289 46.6805 54.1953 46.7306 54.1953C46.7974 54.1953 46.8642 54.1953 46.9143 54.2121C46.9811 54.2289 47.0145 54.2626 47.0646 54.2794C47.1147 54.2962 47.1482 54.3299 47.1649 54.3467C47.1983 54.3635 47.2651 54.3635 47.2985 54.3635Z" fill="#0C2444"/>
<path d="M51.0898 54.9018C51.3069 54.9018 51.4739 54.9187 51.6242 54.9691C51.7746 55.0196 51.8748 55.0701 51.975 55.1542C52.0585 55.2383 52.142 55.3393 52.1921 55.4571C52.2422 55.558 52.2589 55.6926 52.2589 55.8104C52.2589 55.9618 52.2422 56.0796 52.1921 56.2142C52.142 56.3488 52.0919 56.433 51.975 56.5339C51.8748 56.6349 51.7579 56.6853 51.6242 56.719C51.4739 56.7695 51.3069 56.7863 51.1232 56.7863H50.7892V57.7454H50.1378V54.885H51.1065V54.9018H51.0898ZM51.0898 56.3152C51.2568 56.3152 51.3904 56.2647 51.4739 56.1806C51.5574 56.0964 51.5741 55.9955 51.5741 55.8441C51.5741 55.7768 51.5741 55.7095 51.5574 55.6758C51.5407 55.6085 51.5073 55.5749 51.4739 55.5244C51.4238 55.4739 51.3904 55.4571 51.3236 55.4403C51.2568 55.4234 51.19 55.4234 51.1065 55.4234H50.7725V56.332H51.0898V56.3152Z" fill="#0C2444"/>
<path d="M55.0814 54.9019V57.7622H54.4134V56.5508H53.261V57.7622H52.5929V54.9019H53.261V56.1133H54.4134V54.9019H55.0814Z" fill="#0C2444"/>
<path d="M58.1879 57.779H57.6868C57.62 57.779 57.5866 57.7622 57.5365 57.7286C57.4864 57.7117 57.4697 57.6613 57.453 57.6276L57.286 57.1228H56.1837L56.0167 57.6276C56 57.6781 55.9666 57.6949 55.9332 57.7286C55.8831 57.7454 55.8497 57.779 55.7829 57.779H55.2484L56.3507 54.9187H57.0188L58.1879 57.779ZM57.1357 56.6854L56.8685 55.8946C56.8518 55.8441 56.8184 55.7936 56.8017 55.7263C56.785 55.659 56.7515 55.5749 56.7348 55.5076C56.7181 55.5917 56.6847 55.659 56.668 55.7431C56.6513 55.8104 56.6179 55.8777 56.6012 55.9114L56.3507 56.7022H57.1357V56.6854ZM57.6367 54.0942L57.0021 54.6663C56.9854 54.6831 56.9854 54.6831 56.952 54.7168C56.9353 54.7336 56.9353 54.7336 56.9019 54.7336C56.8852 54.7336 56.8518 54.7336 56.8518 54.7336C56.8351 54.7336 56.8017 54.7336 56.7849 54.7336H56.3507L56.7348 54.1952C56.7515 54.1784 56.7515 54.1447 56.7849 54.1447C56.8017 54.1447 56.8016 54.1279 56.8351 54.1279C56.8685 54.1279 56.8852 54.1279 56.9019 54.1111C56.9186 54.1111 56.952 54.1111 56.9854 54.1111L57.6367 54.0942Z" fill="#0C2444"/>
<path d="M59.407 54.9018C59.6242 54.9018 59.7912 54.9187 59.9415 54.9691C60.0918 55.0196 60.192 55.0701 60.2922 55.1542C60.3757 55.2383 60.4592 55.3393 60.5093 55.4571C60.5594 55.558 60.5761 55.6926 60.5761 55.8104C60.5761 55.9618 60.5594 56.0796 60.5093 56.2142C60.4592 56.3488 60.4091 56.433 60.2922 56.5339C60.192 56.6349 60.0751 56.6853 59.9415 56.719C59.7912 56.7695 59.6242 56.7863 59.4404 56.7863H59.0897V57.7454H58.4384V54.885H59.4237V54.9018H59.407ZM59.407 56.3152C59.5741 56.3152 59.7077 56.2647 59.7912 56.1806C59.8747 56.0964 59.8914 55.9955 59.8914 55.8441C59.8914 55.7768 59.8914 55.7095 59.8747 55.6758C59.858 55.6085 59.8246 55.5749 59.7912 55.5244C59.7411 55.4739 59.7077 55.4571 59.6409 55.4403C59.5741 55.4234 59.5072 55.4234 59.4237 55.4234H59.073V56.332H59.407V56.3152Z" fill="#0C2444"/>
<path d="M64.1002 54.9019L62.9645 57.7622H62.38L61.2443 54.9019H61.7787C61.8455 54.9019 61.8789 54.9187 61.929 54.9523C61.9791 54.9692 61.9958 55.0196 62.0125 55.0533L62.5637 56.6012C62.5804 56.6685 62.6138 56.7527 62.6472 56.82C62.6973 56.8873 62.6973 56.9882 62.714 57.0724C62.7307 56.9882 62.7641 56.9041 62.7808 56.82C62.7975 56.7358 62.8309 56.6685 62.8476 56.6012L63.3988 55.0533C63.4155 55.0028 63.4489 54.986 63.4823 54.9523C63.5324 54.9355 63.5658 54.9019 63.6326 54.9019H64.1002Z" fill="#0C2444"/>
<path d="M64.9853 57.779H64.3173V54.9187H64.9853V57.779Z" fill="#0C2444"/>
<path d="M66.2046 55.4067V56.0798H67.1065V56.5677H66.2046V57.2407H67.3904V57.7455H65.5532V54.8851H67.3904V55.3899H66.2046V55.4067ZM67.2568 54.7337H66.8225C66.8058 54.7337 66.7724 54.7337 66.739 54.7169C66.6889 54.7169 66.6722 54.6664 66.6388 54.6328L66.5386 54.4813L66.5219 54.4645L66.5052 54.4477L66.4885 54.4645L66.4718 54.4813L66.3716 54.6328C66.3215 54.6832 66.3048 54.7001 66.2714 54.7169C66.2213 54.7337 66.2046 54.7337 66.1879 54.7337H65.7703L66.2547 54.1785H66.8058L67.2568 54.7337ZM66.8559 58.2334C66.8559 58.2839 66.8559 58.3176 66.8392 58.368C66.8225 58.4185 66.7891 58.4353 66.7724 58.469C66.7557 58.4858 66.7056 58.5195 66.6722 58.5363C66.6221 58.5531 66.5887 58.5531 66.5386 58.5531C66.4885 58.5531 66.4551 58.5531 66.405 58.5363C66.3549 58.5195 66.3382 58.4858 66.3048 58.469C66.2881 58.4522 66.2547 58.4017 66.238 58.368C66.2213 58.3176 66.2213 58.2839 66.2213 58.2334C66.2213 58.183 66.2213 58.1493 66.238 58.0988C66.2547 58.0483 66.2881 58.0315 66.3048 57.9979C66.3215 57.981 66.3716 57.9474 66.405 57.9306C66.4384 57.9137 66.4885 57.9137 66.5386 57.9137C66.5887 57.9137 66.6221 57.9137 66.6722 57.9306C66.7223 57.9474 66.739 57.981 66.7724 57.9979C66.7891 58.0147 66.8225 58.0652 66.8392 58.0988C66.8392 58.1493 66.8559 58.183 66.8559 58.2334Z" fill="#0C2444"/>
<path d="M69.8288 55.4234H69.0271V57.779H68.3758V55.4234H67.5741V54.885H69.8455V55.4234H69.8288Z" fill="#0C2444"/>
<path d="M72.8852 57.0386C72.9019 57.0386 72.9019 57.0386 72.9353 57.0386C72.952 57.0386 72.952 57.0554 72.9854 57.0554L73.2359 57.3246C73.1357 57.4761 72.9854 57.5939 72.8017 57.6612C72.6346 57.7453 72.4175 57.7621 72.1837 57.7621C71.9666 57.7621 71.7662 57.7116 71.5992 57.6612C71.4321 57.577 71.2818 57.4929 71.1649 57.3415C71.0313 57.19 70.9478 57.0723 70.8977 56.8703C70.8309 56.7021 70.7975 56.4834 70.7975 56.2815C70.7975 56.0795 70.8476 55.8776 70.8977 55.6926C70.9645 55.5243 71.0647 55.356 71.1983 55.2214C71.3319 55.0868 71.4655 54.9859 71.6326 54.9186C71.7996 54.8513 71.9833 54.8176 72.2004 54.8176C72.3006 54.8176 72.4175 54.8176 72.501 54.8345C72.5845 54.8513 72.6848 54.8849 72.7683 54.9186C72.8518 54.9691 72.9353 54.9859 73.0021 55.0532C73.0689 55.1037 73.1357 55.1541 73.1858 55.2046L72.952 55.5075C72.9353 55.5243 72.9353 55.558 72.9019 55.558C72.8852 55.558 72.8518 55.5748 72.8184 55.5748C72.8017 55.5748 72.7683 55.5748 72.7516 55.558C72.7349 55.558 72.7015 55.5411 72.6848 55.5075C72.6681 55.4907 72.6346 55.4907 72.6012 55.457C72.5845 55.4402 72.5344 55.4065 72.501 55.4065C72.4509 55.3897 72.4175 55.3897 72.3674 55.356C72.3173 55.3392 72.2672 55.3392 72.1837 55.3392C72.0835 55.3392 71.9666 55.356 71.8831 55.4065C71.7996 55.457 71.7161 55.5075 71.6493 55.5748C71.5825 55.6589 71.5157 55.743 71.4989 55.8776C71.4822 56.0122 71.4321 56.1132 71.4321 56.2646C71.4321 56.4161 71.4488 56.5338 71.4989 56.6684C71.5491 56.7694 71.5825 56.8872 71.666 56.9713C71.7328 57.0554 71.8163 57.1059 71.8998 57.1396C71.9833 57.19 72.0835 57.2069 72.2004 57.2069C72.2672 57.2069 72.3006 57.2069 72.3674 57.2069C72.4342 57.2069 72.4676 57.19 72.5177 57.19C72.5678 57.1732 72.6012 57.1396 72.6513 57.1227C72.7015 57.1059 72.7349 57.0723 72.7516 57.0386C72.7683 57.0218 72.8017 57.0218 72.8017 56.9881C72.785 56.9713 72.8685 57.0386 72.8852 57.0386Z" fill="#0C2444"/>
<path d="M74.1878 55.4066V56.1301H75.1565V56.6349H74.1878V57.7622H73.5198V54.9019H75.3569V55.4066H74.1878Z" fill="#0C2444"/>
<path d="M78.2964 54.9019L77.1607 57.7622H76.5761L75.4404 54.9019H75.9749C76.0417 54.9019 76.0751 54.9187 76.1252 54.9523C76.1753 54.9692 76.192 55.0196 76.2087 55.0533L76.7598 56.6012C76.7765 56.6685 76.8099 56.7527 76.8434 56.82C76.8935 56.8873 76.8935 56.9882 76.9102 57.0724C76.9269 56.9882 76.9603 56.9041 76.977 56.82C76.9937 56.7358 77.0271 56.6685 77.0438 56.6012L77.5949 55.0533C77.6116 55.0028 77.645 54.986 77.6784 54.9523C77.7285 54.9355 77.7619 54.9019 77.8287 54.9019H78.2964Z" fill="#0C2444"/>
</svg>
