<svg width="25" height="25" viewBox="0 0 25 25" fill="none" xmlns="http://www.w3.org/2000/svg">
<path d="M16.69 2.5H8.31C4.67 2.5 2.5 4.67 2.5 8.31V16.68C2.5 20.33 4.67 22.5 8.31 22.5H16.68C20.32 22.5 22.49 20.33 22.49 16.69V8.31C22.5 4.67 20.33 2.5 16.69 2.5Z" fill="#919191"/>
<path d="M12.4999 11.19C11.7799 11.19 11.1899 11.78 11.1899 12.5C11.1899 13.22 11.7799 13.81 12.4999 13.81C13.2199 13.81 13.8099 13.22 13.8099 12.5C13.8099 11.78 13.2199 11.19 12.4999 11.19Z" fill="white"/>
<path d="M7.49994 11.19C6.77994 11.19 6.18994 11.78 6.18994 12.5C6.18994 13.22 6.77994 13.81 7.49994 13.81C8.21994 13.81 8.80994 13.22 8.80994 12.5C8.80994 11.78 8.21994 11.19 7.49994 11.19Z" fill="white"/>
<path d="M17.4999 11.19C16.7799 11.19 16.1899 11.78 16.1899 12.5C16.1899 13.22 16.7799 13.81 17.4999 13.81C18.2199 13.81 18.8099 13.22 18.8099 12.5C18.8099 11.78 18.2199 11.19 17.4999 11.19Z" fill="white"/>
</svg>
