<svg width="24" height="24" viewBox="0 0 24 24" fill="none" xmlns="http://www.w3.org/2000/svg">
<path d="M17.95 18.8099C16.66 18.8099 15.61 17.7599 15.61 16.4699C15.61 15.1799 16.66 14.1299 17.95 14.1299C19.24 14.1299 20.29 15.1799 20.29 16.4699C20.28 17.7599 19.24 18.8099 17.95 18.8099ZM17.95 15.6299C17.49 15.6299 17.11 16.0099 17.11 16.4699C17.11 16.9299 17.49 17.3099 17.95 17.3099C18.41 17.3099 18.79 16.9299 18.79 16.4699C18.78 16.0099 18.41 15.6299 17.95 15.6299Z" fill="white"/>
<path d="M19.64 22.2199C19.08 22.2199 18.53 21.9299 18.23 21.4099L18.16 21.2999C18.05 21.1099 17.96 21.0599 17.94 21.0499C17.93 21.0499 17.83 21.1099 17.72 21.2999L17.66 21.3999C17.2 22.1899 16.19 22.4499 15.42 21.9899L14.52 21.4699C14.11 21.2399 13.82 20.8599 13.7 20.3999C13.58 19.9499 13.64 19.4699 13.87 19.0699C13.98 18.8799 13.98 18.7699 13.97 18.7499C13.96 18.7399 13.87 18.6899 13.65 18.6899C12.68 18.6899 11.89 17.8999 11.89 16.9399V16.0099C11.89 15.0399 12.68 14.2599 13.64 14.2599C13.86 14.2599 13.95 14.1999 13.97 14.1899C13.97 14.1799 13.97 14.0699 13.86 13.8799C13.63 13.4699 13.56 12.9999 13.69 12.5499C13.81 12.0999 14.1 11.7199 14.51 11.4799L15.42 10.9499C16.18 10.4999 17.19 10.7599 17.64 11.5399L17.7 11.6499C17.81 11.8399 17.9 11.8899 17.92 11.8999C17.93 11.8999 18.03 11.8399 18.14 11.6499L18.2 11.5499C18.67 10.7599 19.67 10.4999 20.44 10.9599L21.37 11.4699C21.78 11.6999 22.07 12.0799 22.19 12.5399C22.31 12.9899 22.25 13.4699 22.02 13.8699C21.91 14.0599 21.91 14.1699 21.92 14.1899C21.93 14.1999 22.02 14.2499 22.24 14.2499C23.21 14.2499 24 15.0399 24 15.9999V16.9299C24 17.8999 23.21 18.6799 22.25 18.6799C22.03 18.6799 21.94 18.7399 21.92 18.7499C21.92 18.7599 21.92 18.8699 22.03 19.0599C22.26 19.4699 22.33 19.9399 22.2 20.3899C22.08 20.8399 21.79 21.2199 21.38 21.4599L20.47 21.9899C20.2 22.1399 19.92 22.2199 19.64 22.2199ZM17.95 19.5499C18.55 19.5499 19.1 19.9099 19.47 20.5499L19.53 20.6599C19.56 20.7099 19.64 20.7399 19.7 20.6999L20.62 20.1699C20.7 20.1299 20.73 20.0499 20.74 20.0099C20.75 19.9699 20.76 19.8999 20.72 19.8199C20.35 19.1899 20.32 18.5299 20.62 18.0099C20.92 17.4899 21.51 17.1899 22.24 17.1899C22.38 17.1899 22.5 17.0699 22.5 16.9399V16.0099C22.5 15.8699 22.38 15.7599 22.25 15.7599C21.52 15.7599 20.92 15.4599 20.63 14.9399C20.33 14.4199 20.37 13.7599 20.73 13.1299C20.78 13.0499 20.77 12.9699 20.75 12.9399C20.74 12.8999 20.71 12.8299 20.63 12.7799L19.72 12.2499C19.65 12.2099 19.57 12.2399 19.53 12.2999L19.48 12.3899C19.11 13.0299 18.56 13.3899 17.96 13.3899C17.36 13.3899 16.81 13.0299 16.44 12.3899L16.38 12.2899C16.35 12.2299 16.26 12.2099 16.21 12.2399L15.29 12.7699C15.21 12.8099 15.18 12.8899 15.17 12.9299C15.16 12.9699 15.15 13.0399 15.19 13.1199C15.56 13.7499 15.59 14.4099 15.29 14.9299C14.99 15.4499 14.4 15.7499 13.67 15.7499C13.53 15.7499 13.41 15.8699 13.41 15.9999V16.9299C13.41 17.0699 13.53 17.1799 13.66 17.1799C14.39 17.1799 14.99 17.4799 15.28 17.9999C15.58 18.5199 15.54 19.1799 15.18 19.8099C15.14 19.8899 15.15 19.9599 15.16 19.9999C15.17 20.0399 15.2 20.1099 15.28 20.1599L16.19 20.6899C16.26 20.7299 16.34 20.6999 16.38 20.6399L16.43 20.5399C16.79 19.9099 17.35 19.5499 17.95 19.5499Z" fill="white"/>
<path d="M10 17.6998H6.21C2.41 17.6998 1.25 16.5398 1.25 12.7398V6.73979C1.25 2.93979 2.41 1.77979 6.21 1.77979H16.74C20.54 1.77979 21.7 2.93979 21.7 6.73979C21.7 7.14979 21.36 7.48979 20.95 7.48979C20.54 7.48979 20.2 7.14979 20.2 6.73979C20.2 3.79979 19.68 3.27979 16.74 3.27979H6.21C3.27 3.27979 2.75 3.79979 2.75 6.73979V12.7398C2.75 15.6798 3.27 16.1998 6.21 16.1998H10C10.41 16.1998 10.75 16.5398 10.75 16.9498C10.75 17.3598 10.41 17.6998 10 17.6998Z" fill="white"/>
<path d="M10 22.2199C9.59 22.2199 9.25 21.8799 9.25 21.4699V16.9399C9.25 16.5299 9.59 16.1899 10 16.1899C10.41 16.1899 10.75 16.5299 10.75 16.9399V21.4699C10.75 21.8899 10.41 22.2199 10 22.2199Z" fill="white"/>
<path d="M10 13.7002H2C1.59 13.7002 1.25 13.3602 1.25 12.9502C1.25 12.5402 1.59 12.2002 2 12.2002H10C10.41 12.2002 10.75 12.5402 10.75 12.9502C10.75 13.3602 10.41 13.7002 10 13.7002Z" fill="white"/>
<path d="M9.99999 22.2202H6.73999C6.32999 22.2202 5.98999 21.8802 5.98999 21.4702C5.98999 21.0602 6.32999 20.7202 6.73999 20.7202H9.99999C10.41 20.7202 10.75 21.0602 10.75 21.4702C10.75 21.8802 10.41 22.2202 9.99999 22.2202Z" fill="white"/>
</svg>
