<svg width="25" height="25" viewBox="0 0 25 25" fill="none" xmlns="http://www.w3.org/2000/svg">
<path d="M21.5702 5.73C19.9602 5.57 18.3502 5.45 16.7302 5.36V5.35L16.5102 4.05C16.3602 3.13 16.1402 1.75 13.8002 1.75H11.1802C8.85016 1.75 8.63016 3.07 8.47016 4.04L8.26016 5.32C7.33016 5.38 6.40016 5.44 5.47016 5.53L3.43016 5.73C3.01016 5.77 2.71016 6.14 2.75016 6.55C2.79016 6.96 3.15016 7.26 3.57016 7.22L5.61016 7.02C10.8502 6.5 16.1302 6.7 21.4302 7.23C21.4602 7.23 21.4802 7.23 21.5102 7.23C21.8902 7.23 22.2202 6.94 22.2602 6.55C22.2902 6.14 21.9902 5.77 21.5702 5.73Z" fill="#FF4F4F"/>
<path d="M19.7302 8.64C19.4902 8.39 19.1602 8.25 18.8202 8.25H6.18024C5.84024 8.25 5.50024 8.39 5.27024 8.64C5.04024 8.89 4.91024 9.23 4.93024 9.58L5.55024 19.84C5.66024 21.36 5.80024 23.26 9.29024 23.26H15.7102C19.2002 23.26 19.3402 21.37 19.4502 19.84L20.0702 9.59C20.0902 9.23 19.9602 8.89 19.7302 8.64ZM14.1602 18.25H10.8302C10.4202 18.25 10.0802 17.91 10.0802 17.5C10.0802 17.09 10.4202 16.75 10.8302 16.75H14.1602C14.5702 16.75 14.9102 17.09 14.9102 17.5C14.9102 17.91 14.5702 18.25 14.1602 18.25ZM15.0002 14.25H10.0002C9.59024 14.25 9.25024 13.91 9.25024 13.5C9.25024 13.09 9.59024 12.75 10.0002 12.75H15.0002C15.4102 12.75 15.7502 13.09 15.7502 13.5C15.7502 13.91 15.4102 14.25 15.0002 14.25Z" fill="#FF4F4F"/>
</svg>
