/Users/duchoang/Downloads/vuesax 2/outline/bank.svg<svg width="140" height="34" viewBox="0 0 140 34" fill="none" xmlns="http://www.w3.org/2000/svg">
<path d="M9.89282 0.915161L12.7397 3.61967C13.8073 4.61608 14.3766 5.96835 14.3766 7.46295C14.3766 8.88638 14.946 10.2386 15.9424 11.235L16.2983 11.5909L19.5722 0.986326" fill="white"/>
<path d="M0.213379 10.3811L4.12782 10.2387C5.55125 10.1676 6.97468 10.7369 7.97108 11.7333C8.96749 12.7297 10.3197 13.2279 11.7432 13.2279H12.2414L6.97468 3.47742" fill="white"/>
<path d="M0.213517 23.9036L2.84687 21.0567C3.84327 19.9891 5.19553 19.3486 6.61896 19.3486C8.0424 19.3486 9.32348 18.7081 10.3199 17.7117L10.6757 17.3558L0 14.2954" fill="white"/>
<path d="M9.89291 33.2983L9.67941 29.3838C9.60823 27.9604 10.1064 26.537 11.1028 25.4694C12.0281 24.473 12.5974 23.0496 12.5263 21.6973V21.1991L2.84692 26.6793" fill="white"/>
<path d="M23.4154 33.0136L20.4974 30.4514C19.4298 29.5262 18.7893 28.1739 18.7181 26.6793C18.6469 25.2559 18.0064 23.9748 17.01 22.9784L16.6541 22.6226L13.8073 33.3695" fill="white"/>
<path d="M32.6677 23.1208L28.7532 23.4054C27.3298 23.5478 25.9064 23.0496 24.8388 22.0532C23.7712 21.128 22.4189 20.6297 20.9955 20.7009H20.4973L26.191 30.2379" fill="white"/>
<path d="M32.0271 9.66931L29.5361 12.6585C28.6109 13.7261 27.2586 14.4378 25.8352 14.509C24.4118 14.5802 23.1307 15.2207 22.2055 16.2883L21.9208 16.6441L32.7389 19.2063" fill="white"/>
<path d="M21.9919 0.630493L22.3478 4.54493C22.4901 5.96837 22.0631 7.3918 21.0667 8.53055C20.1414 9.59812 19.7144 10.9504 19.7856 12.3738L19.8567 12.872L29.2514 6.96478" fill="white"/>
<path d="M63.2207 25.822H59.2774L52.6821 16.1879V25.822H48.7388V10.2027H52.6821L59.2774 19.8813V10.2027H63.2207V25.822Z" fill="white"/>
<path d="M65.295 19.5921C65.295 18.3164 65.541 17.1965 66.033 16.2324C66.5403 15.2682 67.2244 14.5266 68.0853 14.0074C68.9463 13.4883 69.9071 13.2287 70.9679 13.2287C71.8749 13.2287 72.6667 13.4067 73.3431 13.7627C74.0349 14.1187 74.5653 14.5859 74.9343 15.1644V13.4067H78.8776V25.822H74.9343V24.0643C74.5499 24.6428 74.0119 25.11 73.32 25.466C72.6436 25.822 71.8519 26 70.9448 26C69.8994 26 68.9463 25.7404 68.0853 25.2213C67.2244 24.6873 66.5403 23.9382 66.033 22.974C65.541 21.9951 65.295 20.8677 65.295 19.5921ZM74.9343 19.6143C74.9343 18.665 74.6575 17.9159 74.1041 17.3671C73.566 16.8183 72.905 16.5439 72.1209 16.5439C71.3368 16.5439 70.6681 16.8183 70.1147 17.3671C69.5766 17.9011 69.3075 18.6428 69.3075 19.5921C69.3075 20.5414 69.5766 21.2979 70.1147 21.8616C70.6681 22.4104 71.3368 22.6848 72.1209 22.6848C72.905 22.6848 73.566 22.4104 74.1041 21.8616C74.6575 21.3127 74.9343 20.5637 74.9343 19.6143Z" fill="white"/>
<path d="M83.7136 12.1162C83.0218 12.1162 82.453 11.9234 82.0071 11.5377C81.5767 11.1372 81.3614 10.6477 81.3614 10.0692C81.3614 9.4759 81.5767 8.9864 82.0071 8.60074C82.453 8.20025 83.0218 8 83.7136 8C84.39 8 84.9435 8.20025 85.3739 8.60074C85.8198 8.9864 86.0427 9.4759 86.0427 10.0692C86.0427 10.6477 85.8198 11.1372 85.3739 11.5377C84.9435 11.9234 84.39 12.1162 83.7136 12.1162ZM85.6737 13.4067V25.822H81.7304V13.4067H85.6737Z" fill="white"/>
<path d="M92.4747 9.35723V25.822H88.5314V9.35723H92.4747Z" fill="white"/>
<path d="M112.557 15.2312C112.557 16.136 112.341 16.9666 111.911 17.7231C111.48 18.4648 110.819 19.0655 109.928 19.5253C109.036 19.9852 107.929 20.2151 106.607 20.2151H104.163V25.822H100.219V10.2027H106.607C107.898 10.2027 108.99 10.4178 109.882 10.848C110.773 11.2781 111.442 11.8714 111.888 12.6279C112.334 13.3844 112.557 14.2522 112.557 15.2312ZM106.307 17.1891C107.06 17.1891 107.622 17.0185 107.991 16.6774C108.36 16.3362 108.544 15.8541 108.544 15.2312C108.544 14.6082 108.36 14.1261 107.991 13.7849C107.622 13.4438 107.06 13.2732 106.307 13.2732H104.163V17.1891H106.307Z" fill="white"/>
<path d="M120.467 26C119.206 26 118.069 25.7404 117.054 25.2213C116.055 24.7021 115.263 23.9604 114.679 22.9963C114.11 22.0321 113.825 20.9048 113.825 19.6143C113.825 18.3387 114.117 17.2188 114.702 16.2546C115.286 15.2756 116.085 14.5266 117.1 14.0074C118.115 13.4883 119.252 13.2287 120.513 13.2287C121.774 13.2287 122.911 13.4883 123.926 14.0074C124.941 14.5266 125.74 15.2756 126.324 16.2546C126.908 17.2188 127.2 18.3387 127.2 19.6143C127.2 20.89 126.901 22.0173 126.301 22.9963C125.717 23.9604 124.91 24.7021 123.88 25.2213C122.865 25.7404 121.727 26 120.467 26ZM120.467 22.707C121.22 22.707 121.858 22.44 122.381 21.9061C122.919 21.3721 123.188 20.6082 123.188 19.6143C123.188 18.6205 122.927 17.8566 122.404 17.3226C121.897 16.7886 121.266 16.5216 120.513 16.5216C119.744 16.5216 119.106 16.7886 118.599 17.3226C118.092 17.8418 117.838 18.6057 117.838 19.6143C117.838 20.6082 118.084 21.3721 118.576 21.9061C119.083 22.44 119.713 22.707 120.467 22.707Z" fill="white"/>
<path d="M134.527 26C133.405 26 132.406 25.8146 131.529 25.4438C130.653 25.0729 129.961 24.5686 129.454 23.9308C128.947 23.2781 128.662 22.5513 128.601 21.7503H132.498C132.544 22.1805 132.751 22.529 133.12 22.796C133.489 23.063 133.943 23.1965 134.481 23.1965C134.973 23.1965 135.35 23.1075 135.611 22.9295C135.888 22.7367 136.026 22.492 136.026 22.1953C136.026 21.8393 135.834 21.5797 135.45 21.4166C135.065 21.2386 134.443 21.0457 133.582 20.8381C132.659 20.6304 131.891 20.4153 131.276 20.1928C130.661 19.9555 130.13 19.5921 129.684 19.1026C129.239 18.5983 129.016 17.9234 129.016 17.0779C129.016 16.3659 129.216 15.7206 129.615 15.1422C130.03 14.5488 130.63 14.0816 131.414 13.7404C132.213 13.3993 133.159 13.2287 134.25 13.2287C135.865 13.2287 137.133 13.6143 138.055 14.3857C138.993 15.157 139.531 16.1805 139.67 17.4561H136.026C135.965 17.026 135.765 16.6848 135.426 16.4326C135.104 16.1805 134.673 16.0544 134.135 16.0544C133.674 16.0544 133.32 16.1434 133.074 16.3214C132.828 16.4845 132.705 16.7145 132.705 17.0111C132.705 17.3671 132.898 17.6341 133.282 17.8121C133.682 17.9901 134.297 18.1681 135.127 18.3461C136.08 18.5834 136.856 18.8208 137.456 19.0581C138.055 19.2806 138.578 19.6514 139.024 20.1706C139.485 20.6749 139.723 21.3572 139.739 22.2176C139.739 22.9444 139.524 23.597 139.093 24.1755C138.678 24.7392 138.071 25.1842 137.271 25.5105C136.487 25.8368 135.573 26 134.527 26Z" fill="white"/>
</svg>
