<svg width="110" height="82" viewBox="0 0 110 82" fill="none" xmlns="http://www.w3.org/2000/svg">
<path d="M42.094 46.3578C42.094 48.1744 40.6242 49.6691 38.7871 49.6691H11.1837C9.36952 49.6691 7.87683 48.1974 7.87683 46.3578V18.7179C7.87683 16.9013 9.34656 15.4066 11.1837 15.4066H38.7641C40.5783 15.4066 42.071 16.8783 42.071 18.7179V46.3578H42.094Z" fill="#0C2444"/>
<path d="M11.1837 48.1974V47.8295C10.7704 47.8295 10.4259 47.6455 10.1733 47.3926C9.92067 47.1396 9.73696 46.7487 9.73696 46.3808V18.7408C9.73696 18.3269 9.92067 17.982 10.1733 17.7291C10.4259 17.4761 10.8163 17.2922 11.1837 17.2922H38.7641C39.1775 17.2922 39.5219 17.4761 39.7745 17.7291C40.0271 17.982 40.2109 18.3729 40.2109 18.7408V46.3578C40.2109 46.7717 40.0271 47.1166 39.7745 47.3696C39.5219 47.6225 39.1315 47.8065 38.7641 47.8065H11.1837V48.1974V48.5653H38.7641C39.3612 48.5653 39.9123 48.3123 40.3257 47.9214C40.739 47.5075 40.9687 46.9556 40.9687 46.3578V18.7408C40.9687 18.143 40.7161 17.5911 40.3257 17.1772C39.9123 16.7633 39.3612 16.5333 38.7641 16.5333H11.1837C10.5866 16.5333 10.0355 16.7863 9.62213 17.1772C9.20877 17.5911 8.97913 18.143 8.97913 18.7408V46.3578C8.97913 46.9556 9.23174 47.5075 9.62213 47.9214C10.0355 48.3353 10.5866 48.5653 11.1837 48.5653V48.1974Z" fill="white"/>
<path d="M72.1545 66.1335C72.1545 67.9501 70.6847 69.4448 68.8476 69.4448H41.2902C39.476 69.4448 37.9833 67.9731 37.9833 66.1335V38.5166C37.9833 36.7 39.453 35.2053 41.2902 35.2053H68.8705C70.6847 35.2053 72.1774 36.677 72.1774 38.5166L72.1545 66.1335Z" fill="white"/>
<path d="M41.2902 67.9501V67.5822C40.8768 67.5822 40.5323 67.3983 40.2797 67.1453C40.0271 66.8924 39.8434 66.5015 39.8434 66.1335V38.5166C39.8434 38.1027 40.0271 37.7578 40.2797 37.5048C40.5323 37.2519 40.9227 37.0679 41.2902 37.0679H68.8705C69.2839 37.0679 69.6284 37.2519 69.881 37.5048C70.1336 37.7578 70.3173 38.1487 70.3173 38.5166V66.1335C70.3173 66.5474 70.1336 66.8924 69.881 67.1453C69.6284 67.3983 69.238 67.5822 68.8705 67.5822H41.2902V67.9501V68.3181H68.8705C69.4676 68.3181 70.0188 68.0651 70.4321 67.6742C70.8455 67.2603 71.0751 66.7084 71.0751 66.1105V38.5166C71.0751 37.9187 70.8225 37.3669 70.4321 36.9529C70.0188 36.539 69.4676 36.3091 68.8705 36.3091H41.2902C40.6931 36.3091 40.1419 36.562 39.7286 36.9529C39.3152 37.3669 39.0856 37.9187 39.0856 38.5166V66.1335C39.0856 66.7314 39.3382 67.2833 39.7286 67.6972C40.1419 68.1111 40.6931 68.3411 41.2902 68.3411V67.9501Z" fill="#0C2444"/>
<path d="M102.261 46.3578C102.261 48.1744 100.791 49.6691 98.9541 49.6691H71.3737C69.5595 49.6691 68.0668 48.1974 68.0668 46.3578V18.7179C68.0668 16.9013 69.5366 15.4066 71.3737 15.4066H98.9771C100.791 15.4066 102.284 16.8783 102.284 18.7179L102.261 46.3578Z" fill="#EA2B3A"/>
<path d="M71.3737 48.1974V47.8295C70.9604 47.8295 70.6159 47.6455 70.3633 47.3926C70.1107 47.1397 69.927 46.7487 69.927 46.3808V18.7179C69.927 18.304 70.1107 17.9591 70.3633 17.7061C70.6159 17.4532 71.0063 17.2692 71.3737 17.2692H98.9771C99.3904 17.2692 99.7349 17.4532 99.9875 17.7061C100.24 17.9591 100.424 18.35 100.424 18.7179V46.3348C100.424 46.7487 100.24 47.0937 99.9875 47.3466C99.7349 47.5995 99.3445 47.7835 98.9771 47.7835H71.3737V48.1974V48.5653H98.9771C99.5741 48.5653 100.125 48.3124 100.539 47.9215C100.952 47.5076 101.182 46.9557 101.182 46.3578V18.7179C101.182 18.12 100.929 17.5681 100.539 17.1542C100.125 16.7403 99.5741 16.5104 98.9771 16.5104H71.3737C70.7766 16.5104 70.2255 16.7633 69.8121 17.1542C69.3988 17.5681 69.1691 18.12 69.1691 18.7179V46.3348C69.1691 46.9327 69.4217 47.4846 69.8121 47.8985C70.2255 48.3124 70.7766 48.5423 71.3737 48.5423V48.1974Z" fill="white"/>
<path d="M34.5616 34.8833C34.0104 37.0678 32.8852 38.8155 31.1399 40.1952C29.3946 41.5289 27.4426 42.1957 25.1691 42.1957C22.4593 42.1957 20.1628 41.2759 18.2568 39.4133C16.3507 37.5277 15.3862 35.2282 15.3862 32.5378C15.3862 29.8474 16.3507 27.5479 18.2338 25.6623C20.1169 23.8457 22.4363 22.903 25.1232 22.903C28.6597 22.903 31.3695 24.3516 33.2756 27.272C33.9416 28.2838 34.3779 29.2956 34.5386 30.3073H29.5553C28.7516 28.1688 27.2359 27.065 25.0773 27.065C23.6075 27.065 22.4134 27.6169 21.4489 28.6977C20.5532 29.7325 20.094 31.0202 20.094 32.4918C20.094 34.0095 20.5532 35.2742 21.4489 36.309C22.4134 37.4358 23.6305 37.9876 25.1002 37.9876C27.1211 37.9876 28.6138 36.9529 29.5553 34.8603L34.5616 34.8833Z" fill="white"/>
<path d="M54.5637 47.2086V50.3589H59.9604V54.544H54.5637V61.6035H50.0167V43.0236H60.1441V47.2086H54.5637Z" fill="#0C2444"/>
<path d="M87.5866 41.8508H82.7411L76.5178 23.2249H81.3633L85.1295 36.286H85.1983L88.9645 23.2249H93.81L87.5866 41.8508Z" fill="white"/>
<path d="M5.09813 5.19684C5.07517 5.26582 5.02924 5.28882 5.00628 5.31181C4.98331 5.33481 4.91442 5.33481 4.86849 5.33481C4.82256 5.33481 4.77663 5.31181 4.7307 5.26582C4.66181 5.24283 4.61588 5.19684 4.52402 5.15085C4.45513 5.12785 4.38623 5.05887 4.29438 5.03587C4.20252 5.01288 4.08769 4.96689 3.97287 4.96689C3.76619 4.96689 3.6284 4.98988 3.51358 5.08186C3.39876 5.17384 3.3758 5.33481 3.3758 5.49577C3.3758 5.58775 3.39876 5.67973 3.46765 5.72572C3.53655 5.79471 3.60544 5.8407 3.6973 5.86369C3.78916 5.93267 3.90398 5.95567 4.0188 5.97866C4.13362 6.00166 4.27141 6.07064 4.38623 6.09364C4.50106 6.16262 4.63884 6.18562 4.75367 6.2776C4.86849 6.34658 4.98331 6.41557 5.07517 6.50755C5.16703 6.59953 5.25889 6.7145 5.30481 6.85247C5.37371 6.99044 5.39667 7.15141 5.39667 7.33537C5.39667 7.54232 5.37371 7.74928 5.28185 7.93324C5.18999 8.1172 5.09813 8.27816 4.96035 8.41613C4.82256 8.5541 4.63884 8.66907 4.43216 8.73806C4.22548 8.83004 3.99584 8.85303 3.74323 8.85303C3.60544 8.85303 3.44469 8.83004 3.3069 8.78405C3.16911 8.76105 3.00836 8.71506 2.87058 8.66907C2.73279 8.60009 2.64093 8.5771 2.50314 8.48512C2.38832 8.39314 2.2735 8.34714 2.18164 8.23217L2.50314 7.77227C2.52611 7.74928 2.57204 7.70329 2.595 7.68029C2.61797 7.6573 2.68686 7.6573 2.73279 7.6573C2.77872 7.6573 2.84761 7.68029 2.93947 7.72628C3.00836 7.74928 3.07726 7.81826 3.16911 7.86425C3.26097 7.93324 3.35283 7.95623 3.46765 8.00222C3.58248 8.02522 3.6973 8.07121 3.83509 8.07121C4.04177 8.07121 4.17955 8.04821 4.29438 7.95623C4.4092 7.86425 4.47809 7.72628 4.47809 7.54232C4.47809 7.42735 4.45513 7.33537 4.38623 7.28938C4.31734 7.22039 4.24845 7.1744 4.15659 7.10542C4.06473 7.03643 3.94991 7.01344 3.83509 6.99044C3.72026 6.96745 3.58248 6.92146 3.46765 6.87547C3.35283 6.85247 3.21504 6.78349 3.10022 6.7375C2.9854 6.66851 2.87058 6.59953 2.77872 6.50755C2.68686 6.41557 2.595 6.2776 2.54907 6.13963C2.48018 6.00166 2.45721 5.8177 2.45721 5.58775C2.45721 5.40379 2.48018 5.24283 2.57204 5.05887C2.64093 4.87491 2.75575 4.73694 2.89354 4.62196C3.03133 4.50699 3.19208 4.39201 3.3758 4.30003C3.58248 4.20805 3.81212 4.18506 4.04177 4.18506C4.17955 4.18506 4.3403 4.18506 4.45513 4.20805C4.59291 4.23105 4.70774 4.27704 4.82256 4.30003C4.93738 4.32303 5.0522 4.39201 5.16703 4.438C5.28185 4.48399 5.37371 4.55298 5.46557 4.64496L5.09813 5.19684Z" fill="white"/>
<path d="M11.0689 3.79417C11.0689 3.86316 11.0918 3.88615 11.0918 3.97813C11.0918 4.04712 11.0918 4.1161 11.0918 4.18509C11.0918 4.30006 11.0689 4.43803 11.023 4.55301C11 4.66798 10.9311 4.78296 10.8852 4.87494C10.8392 4.96692 10.7474 5.08189 10.6326 5.12788C10.5177 5.21986 10.4029 5.26585 10.2651 5.31184C10.3799 5.4958 10.4718 5.67976 10.5177 5.88671C10.5637 6.09367 10.6096 6.32362 10.6096 6.55357C10.6096 6.89849 10.5407 7.19743 10.4259 7.47337C10.3111 7.7723 10.1273 8.02524 9.94362 8.2322C9.73694 8.43915 9.48433 8.60012 9.1858 8.71509C8.88726 8.83007 8.54279 8.89905 8.19832 8.89905C7.85385 8.89905 7.50939 8.83007 7.21085 8.71509C6.91231 8.60012 6.6597 8.41616 6.45302 8.2322C6.24634 8.04824 6.08559 7.7723 5.97076 7.47337C5.85594 7.17443 5.78705 6.8755 5.78705 6.55357C5.78705 6.20864 5.85594 5.90971 5.97076 5.63377C6.08559 5.33483 6.2693 5.08189 6.45302 4.87494C6.63674 4.66798 6.91231 4.50702 7.21085 4.39204C7.50939 4.27707 7.85385 4.20808 8.19832 4.20808C8.54279 4.20808 8.88726 4.27707 9.1858 4.39204C9.48433 4.50702 9.73694 4.69098 9.94362 4.87494C10.0355 4.85194 10.0584 4.80595 10.1273 4.75996C10.1503 4.69098 10.1962 4.66798 10.1962 4.62199C10.1962 4.599 10.1962 4.55301 10.1733 4.53001C10.1733 4.50702 10.1503 4.46103 10.1503 4.43803C10.1273 4.41504 10.1273 4.36905 10.1273 4.32306C10.1273 4.30006 10.1044 4.23108 10.1044 4.18509C10.1044 4.07011 10.1273 3.95514 10.2192 3.88615C10.3111 3.81717 10.4259 3.79417 10.5866 3.79417C10.5407 3.79417 11.0689 3.79417 11.0689 3.79417ZM8.22129 8.04824C8.42797 8.04824 8.58872 8.02524 8.77243 7.95626C8.95615 7.88727 9.07097 7.7723 9.1858 7.65732C9.30062 7.54235 9.39248 7.35839 9.4384 7.19743C9.5073 7.01347 9.53026 6.82951 9.53026 6.59956C9.53026 6.36961 9.5073 6.16265 9.4384 6.00169C9.36951 5.81773 9.30062 5.65676 9.1858 5.54179C9.07097 5.42681 8.93319 5.31184 8.77243 5.24285C8.58872 5.17387 8.42797 5.12788 8.22129 5.12788C8.01461 5.12788 7.80793 5.15087 7.67014 5.24285C7.48642 5.31184 7.3716 5.42681 7.25678 5.54179C7.14195 5.65676 7.0501 5.84072 7.00417 6.00169C6.93527 6.18565 6.91231 6.36961 6.91231 6.59956C6.91231 6.82951 6.93527 7.03646 7.00417 7.19743C7.07306 7.35839 7.14195 7.54235 7.25678 7.65732C7.3716 7.7723 7.50939 7.88727 7.67014 7.95626C7.80793 8.02524 7.99164 8.04824 8.22129 8.04824ZM7.44049 3.15031C7.53235 3.08133 7.62421 3.05833 7.762 3.01234C7.89978 2.98935 8.06053 2.94336 8.19832 2.94336C8.42797 2.94336 8.63465 2.96635 8.74947 3.08133C8.86429 3.17331 8.95615 3.28828 8.95615 3.42625C8.95615 3.49524 8.95615 3.54123 8.93319 3.61021C8.91022 3.6792 8.86429 3.70219 8.84133 3.72519C8.81836 3.74818 8.74947 3.79417 8.70354 3.81717C8.63465 3.84016 8.58872 3.88615 8.51982 3.88615L8.45093 4.02412H7.99164V3.6562C8.10646 3.6562 8.17536 3.63321 8.22129 3.58722C8.29018 3.56422 8.29018 3.51823 8.29018 3.49524C8.29018 3.47224 8.26721 3.42625 8.22129 3.40326C8.19832 3.38026 8.12943 3.38026 8.0835 3.38026C8.06053 3.38026 8.01461 3.38026 7.96868 3.38026C7.94571 3.38026 7.89978 3.40326 7.87682 3.40326C7.85385 3.40326 7.80793 3.42625 7.78496 3.42625C7.762 3.42625 7.71607 3.42625 7.71607 3.42625C7.6931 3.42625 7.64717 3.42625 7.64717 3.40326C7.62421 3.38026 7.62421 3.38026 7.57828 3.33427L7.44049 3.15031Z" fill="white"/>
<path d="M15.3173 6.4846H16.9708V8.46216C16.7411 8.64612 16.4885 8.7611 16.213 8.83008C15.9603 8.92206 15.6618 8.94506 15.3633 8.94506C14.9958 8.94506 14.6284 8.87607 14.3299 8.7611C14.0084 8.64612 13.7558 8.46216 13.5261 8.27821C13.2965 8.07125 13.1127 7.81831 12.9979 7.51937C12.8831 7.22044 12.8142 6.9215 12.8142 6.55358C12.8142 6.20866 12.8831 5.88673 12.9979 5.5878C13.1127 5.28886 13.2965 5.03592 13.4802 4.82896C13.6639 4.62201 13.9395 4.46104 14.261 4.34607C14.5595 4.23109 14.904 4.16211 15.2714 4.16211C15.4781 4.16211 15.6388 4.1851 15.8226 4.23109C16.0063 4.25409 16.1441 4.32307 16.2819 4.36906C16.4196 4.41505 16.5345 4.48404 16.6952 4.57602C16.81 4.668 16.9249 4.71399 17.0167 4.82896L16.6722 5.28886C16.6034 5.38084 16.5574 5.40384 16.4656 5.42683C16.3737 5.44983 16.2818 5.42683 16.213 5.35785C16.1211 5.28886 16.0292 5.26587 15.9833 5.21988C15.8915 5.19688 15.8455 5.15089 15.7537 5.1279C15.6618 5.1049 15.57 5.1049 15.5011 5.05891C15.4092 5.05891 15.3173 5.03592 15.2025 5.03592C14.9958 5.03592 14.8351 5.05891 14.6514 5.15089C14.4677 5.21988 14.3528 5.33485 14.238 5.44983C14.1232 5.5648 14.0313 5.74876 13.9854 5.90973C13.9165 6.09369 13.8935 6.27764 13.8935 6.50759C13.8935 6.73754 13.9165 6.96749 14.0084 7.17445C14.0773 7.3814 14.1921 7.51937 14.3069 7.65734C14.4217 7.79531 14.5595 7.88729 14.7432 7.95628C14.9269 8.02526 15.1107 8.07125 15.3173 8.07125C15.4322 8.07125 15.5699 8.07125 15.6618 8.04826C15.7766 8.02526 15.8685 7.97927 15.9833 7.93328V7.24343H15.524C15.4551 7.24343 15.4092 7.22044 15.3862 7.17445C15.3633 7.12846 15.3173 7.08247 15.3173 7.03648V6.4846Z" fill="white"/>
<path d="M18.762 8.87601H17.6827V4.25403H18.762V8.87601Z" fill="white"/>
<path d="M23.7912 8.87607H22.9645C22.8727 8.87607 22.7808 8.85308 22.7349 8.80709C22.666 8.7381 22.643 8.71511 22.62 8.62313L22.3674 7.8183H20.5992L20.3466 8.62313C20.3236 8.69211 20.2777 8.7381 20.2317 8.80709C20.1628 8.87607 20.0939 8.87607 20.0021 8.87607H19.1524L20.9436 4.23109H22.0459L23.7912 8.87607ZM22.0919 7.10546L21.6555 5.84074C21.6326 5.74876 21.5866 5.65678 21.5407 5.5418C21.5177 5.42683 21.4718 5.31185 21.4259 5.19688C21.4029 5.31185 21.357 5.44982 21.3111 5.5418C21.2881 5.65678 21.2422 5.74876 21.1962 5.84074L20.7599 7.10546H22.0919ZM22.9186 2.94337L21.8852 3.84018C21.8622 3.86317 21.8163 3.86317 21.7933 3.90916C21.7704 3.90916 21.7244 3.93216 21.7015 3.93216C21.6785 3.93216 21.6326 3.93216 21.6096 3.93216C21.5866 3.93216 21.5407 3.93216 21.5177 3.93216H20.7829L21.38 3.05835C21.4029 3.03535 21.4489 2.98936 21.4718 2.96637C21.4948 2.94337 21.5407 2.94337 21.5637 2.89738C21.5866 2.89738 21.6326 2.87439 21.6555 2.87439C21.6785 2.87439 21.7474 2.87439 21.7704 2.87439H22.8956L22.9186 2.94337Z" fill="white"/>
<path d="M28.7286 6.57656C28.7286 6.92149 28.6597 7.22042 28.5449 7.49636C28.4301 7.7953 28.2464 8.04824 28.0626 8.2552C27.856 8.46215 27.6034 8.62311 27.3048 8.73809C27.0063 8.85306 26.6618 8.92205 26.3173 8.92205C25.9729 8.92205 25.6284 8.85306 25.3299 8.73809C25.0313 8.62311 24.7787 8.43916 24.572 8.2552C24.3654 8.04824 24.2046 7.7953 24.0898 7.49636C23.975 7.19743 23.9061 6.89849 23.9061 6.57656C23.9061 6.23164 23.975 5.93271 24.0898 5.65677C24.2046 5.38083 24.3883 5.10489 24.572 4.89793C24.7558 4.69098 25.0313 4.53001 25.3299 4.41504C25.6284 4.30006 25.9729 4.23108 26.3173 4.23108C26.6618 4.23108 27.0063 4.30006 27.3048 4.41504C27.6034 4.53001 27.856 4.71397 28.0626 4.89793C28.2693 5.10489 28.4301 5.35783 28.5449 5.65677C28.6597 5.93271 28.7286 6.25463 28.7286 6.57656ZM27.6263 6.57656C27.6263 6.34661 27.6034 6.13966 27.5345 5.9787C27.4656 5.79474 27.3967 5.63377 27.2819 5.5188C27.167 5.40382 27.0292 5.28885 26.8685 5.21986C26.6848 5.15088 26.524 5.10489 26.3173 5.10489C26.1107 5.10489 25.904 5.12788 25.7662 5.21986C25.5825 5.28885 25.4677 5.40382 25.3528 5.5188C25.238 5.63377 25.1462 5.81773 25.1002 5.9787C25.0313 6.16265 25.0084 6.34661 25.0084 6.57656C25.0084 6.80651 25.0313 7.01347 25.1002 7.17443C25.1691 7.35839 25.238 7.51936 25.3528 7.63433C25.4677 7.74931 25.6054 7.86428 25.7662 7.93327C25.9499 8.00225 26.1107 8.02525 26.3173 8.02525C26.524 8.02525 26.6848 8.00225 26.8685 7.93327C27.0522 7.86428 27.167 7.74931 27.2819 7.63433C27.3967 7.51936 27.4885 7.3354 27.5345 7.17443C27.5804 6.99047 27.6263 6.80651 27.6263 6.57656Z" fill="white"/>
<path d="M35.0209 6.57652C35.0209 6.92144 34.952 7.22038 34.8371 7.49632C34.7223 7.79525 34.5386 8.0252 34.3549 8.23215C34.1712 8.43911 33.8956 8.60007 33.5971 8.71505C33.2985 8.83002 32.9541 8.89901 32.6096 8.89901H30.8184V4.25403H32.6096C32.9541 4.25403 33.2985 4.32301 33.5971 4.43799C33.8956 4.55296 34.1482 4.73692 34.3549 4.92088C34.5616 5.12784 34.7223 5.38078 34.8371 5.65672C34.9749 5.93266 35.0209 6.25459 35.0209 6.57652ZM33.9186 6.57652C33.9186 6.34657 33.8956 6.13961 33.8267 5.97865C33.7578 5.79469 33.6889 5.63373 33.5741 5.51875C33.4593 5.40378 33.3215 5.2888 33.1607 5.21982C32.977 5.15083 32.8163 5.10484 32.6096 5.10484H31.8747V8.09419H32.6096C32.8163 8.09419 32.977 8.07119 33.1607 7.97921C33.3445 7.91023 33.4593 7.79525 33.5741 7.68028C33.6889 7.5653 33.7808 7.38134 33.8267 7.22038C33.8956 6.99043 33.9186 6.80647 33.9186 6.57652Z" fill="white"/>
<path d="M37.5929 8.0482C37.7307 8.0482 37.8456 8.0252 37.9604 7.97921C38.0752 7.91023 38.1671 7.86424 38.2589 7.77226C38.3508 7.68028 38.3967 7.5653 38.4426 7.45033C38.4656 7.33535 38.5115 7.19738 38.5115 7.01342V4.25403H39.5909V7.01342C39.5909 7.31236 39.522 7.5653 39.4531 7.79525C39.3612 8.0252 39.2234 8.23216 39.0397 8.39312C38.856 8.57708 38.6723 8.71505 38.3967 8.80703C38.1671 8.89901 37.8685 8.945 37.547 8.945C37.2255 8.945 36.9729 8.87601 36.6973 8.80703C36.4447 8.71505 36.238 8.57708 36.0543 8.39312C35.8706 8.20916 35.7558 8.0252 35.641 7.79525C35.5491 7.5653 35.5032 7.31236 35.5032 7.01342V4.25403H36.5825V7.01342C36.5825 7.19738 36.6055 7.33535 36.6514 7.45033C36.6744 7.5653 36.7433 7.68028 36.8351 7.77226C36.927 7.86424 37.0188 7.91023 37.1337 7.97921C37.3174 8.0252 37.4552 8.0482 37.5929 8.0482ZM38.1211 9.63485C38.1211 9.70383 38.1211 9.77282 38.0982 9.8418C38.0752 9.91079 38.0293 9.95678 37.9833 9.97977C37.9144 10.0488 37.8685 10.0718 37.7996 10.0947C37.7307 10.1177 37.6618 10.1177 37.5929 10.1177C37.524 10.1177 37.4552 10.1177 37.3863 10.0947C37.3174 10.0718 37.2714 10.0258 37.2025 9.97977C37.1337 9.91079 37.1107 9.88779 37.0877 9.8418C37.0648 9.77282 37.0648 9.72683 37.0648 9.63485C37.0648 9.56586 37.0648 9.49688 37.0877 9.42789C37.1107 9.35891 37.1566 9.31292 37.2025 9.28992C37.2714 9.22094 37.2944 9.19794 37.3863 9.17495C37.4552 9.15195 37.5011 9.15195 37.5929 9.15195C37.6618 9.15195 37.7307 9.15195 37.7996 9.17495C37.8685 9.19794 37.9144 9.24393 37.9833 9.28992C38.0522 9.35891 38.0752 9.3819 38.0982 9.42789C38.0982 9.49688 38.1211 9.54287 38.1211 9.63485Z" fill="white"/>
<path d="M43.5407 7.70333C43.5637 7.70333 43.6096 7.70333 43.6326 7.70333C43.6556 7.70333 43.7015 7.72633 43.7244 7.77232L44.1608 8.20922C43.9771 8.43917 43.7244 8.64612 43.4718 8.7611C43.1733 8.87607 42.8748 8.94506 42.4844 8.94506C42.1399 8.94506 41.8184 8.87607 41.5199 8.7611C41.2213 8.64612 40.9917 8.46216 40.785 8.27821C40.5783 8.07125 40.4405 7.81831 40.3487 7.51937C40.2338 7.22044 40.2109 6.9215 40.2109 6.55358C40.2109 6.18566 40.2798 5.88673 40.3946 5.5878C40.5094 5.28886 40.6472 5.03592 40.8539 4.82896C41.0606 4.62201 41.2902 4.46104 41.5887 4.34607C41.8873 4.23109 42.1858 4.16211 42.5073 4.16211C42.691 4.16211 42.8518 4.1851 42.9896 4.23109C43.1274 4.25409 43.2881 4.32307 43.4259 4.34607C43.5637 4.41505 43.6785 4.46104 43.7933 4.55302C43.9082 4.645 44 4.69099 44.0919 4.80597L43.7244 5.28886C43.7015 5.31186 43.6556 5.35785 43.6326 5.38084C43.6096 5.40384 43.5407 5.40384 43.4948 5.40384C43.4718 5.40384 43.4029 5.40384 43.38 5.38084C43.357 5.35785 43.3111 5.35785 43.2652 5.31186C43.2422 5.28886 43.1733 5.24287 43.1503 5.21988C43.0814 5.19688 43.0585 5.15089 42.9666 5.1279C42.8977 5.1049 42.8288 5.05891 42.737 5.05891C42.6451 5.03592 42.5533 5.03592 42.4384 5.03592C42.2547 5.03592 42.094 5.05891 41.9562 5.1279C41.8184 5.19688 41.7036 5.31186 41.5887 5.42683C41.4739 5.54181 41.3821 5.72577 41.3361 5.88673C41.2902 6.0477 41.2443 6.30064 41.2443 6.53059C41.2443 6.76054 41.2672 6.96749 41.3361 7.17445C41.405 7.35841 41.4739 7.51937 41.5887 7.63435C41.7036 7.74932 41.8184 7.8643 41.9562 7.93328C42.094 8.00227 42.2777 8.02526 42.4155 8.02526C42.5073 8.02526 42.5992 8.02526 42.6681 8.02526C42.7599 8.02526 42.8059 8.00227 42.8977 7.95628C42.9666 7.93328 43.0355 7.88729 43.1044 7.8643C43.1733 7.8413 43.2192 7.77232 43.2881 7.72633C43.3111 7.70333 43.357 7.70333 43.38 7.65734C43.4718 7.70333 43.5178 7.70333 43.5407 7.70333Z" fill="white"/>
<path d="M49.9708 4.25403L48.1107 8.89901H47.1232L45.2631 4.25403H46.1357C46.2276 4.25403 46.3194 4.27702 46.3654 4.32301C46.4342 4.34601 46.4572 4.41499 46.4802 4.50697L47.3758 6.99043C47.3988 7.1054 47.4677 7.22038 47.4906 7.33535C47.5136 7.45033 47.5825 7.5883 47.6054 7.74926C47.6284 7.61129 47.6743 7.49632 47.6973 7.33535C47.7203 7.22038 47.7892 7.08241 47.8121 6.99043L48.7077 4.50697C48.7307 4.43799 48.7766 4.392 48.8226 4.32301C48.8915 4.25403 48.9603 4.25403 49.0522 4.25403C49.0752 4.25403 49.9708 4.25403 49.9708 4.25403Z" fill="white"/>
<path d="M54.1044 8.87606H53.2547C53.1629 8.87606 53.071 8.85306 53.0251 8.80707C52.9562 8.73809 52.9332 8.71509 52.9103 8.62311L52.6577 7.81829H50.8894L50.6368 8.62311C50.6138 8.6921 50.5679 8.73809 50.522 8.80707C50.4531 8.87606 50.3842 8.87606 50.2923 8.87606H49.4426L51.2339 4.23108H52.3362L54.1044 8.87606ZM51.3028 2.94336C51.3716 2.94336 51.3946 2.94336 51.4176 2.94336C51.4405 2.94336 51.4865 2.94336 51.5094 2.96635C51.5324 2.96635 51.5783 2.98935 51.6013 2.98935C51.6243 3.01234 51.6702 3.05833 51.6931 3.08133L52.3591 3.95514H51.6243C51.6013 3.95514 51.5554 3.95514 51.5324 3.95514C51.5094 3.95514 51.4635 3.95514 51.4405 3.95514C51.4176 3.95514 51.3716 3.93214 51.3716 3.93214C51.3487 3.93214 51.3028 3.90915 51.3028 3.86316L50.2693 2.94336C50.2923 2.94336 51.3028 2.94336 51.3028 2.94336ZM52.405 7.10545L51.9687 5.84072C51.9458 5.74874 51.8998 5.65676 51.8539 5.54179C51.8309 5.42681 51.785 5.31184 51.7391 5.19686C51.7161 5.31184 51.6702 5.44981 51.6243 5.54179C51.6013 5.65676 51.5554 5.74874 51.5094 5.84072L51.0731 7.10545H52.405Z" fill="white"/>
<path d="M57.595 4.25403C57.9395 4.25403 58.2839 4.32301 58.5825 4.43799C58.881 4.55296 59.1336 4.73692 59.3403 4.92088C59.547 5.12784 59.7077 5.38078 59.8225 5.65672C59.9374 5.93266 60.0063 6.23159 60.0063 6.57652C60.0063 6.92144 59.9374 7.22038 59.8225 7.49632C59.7077 7.79525 59.524 8.0252 59.3403 8.23215C59.1336 8.43911 58.881 8.60007 58.5825 8.71505C58.2839 8.83002 57.9395 8.89901 57.595 8.89901H55.8038V6.87545H55.2756V6.30058H55.8038V4.27702C55.8038 4.25403 57.595 4.25403 57.595 4.25403ZM57.595 8.07119C57.8017 8.07119 57.9624 8.0482 58.1461 7.95622C58.3299 7.88723 58.4447 7.77226 58.5595 7.65728C58.6743 7.54231 58.7662 7.35835 58.8121 7.19738C58.881 7.01342 58.904 6.78347 58.904 6.55352C58.904 6.32357 58.881 6.11662 58.8121 5.95565C58.7432 5.7717 58.6743 5.61073 58.5595 5.49576C58.4447 5.38078 58.3069 5.26581 58.1461 5.19682C57.9624 5.12784 57.8017 5.08185 57.595 5.08185H56.8601V6.27758H57.6409V6.85246H56.8601V8.07119H57.595Z" fill="white"/>
<path d="M64.6451 8.87606H63.7954C63.7036 8.87606 63.6117 8.85306 63.5658 8.80707C63.4969 8.73809 63.4739 8.71509 63.451 8.62311L63.1984 7.81829H61.4301L61.1775 8.62311C61.1545 8.6921 61.1086 8.73809 61.0627 8.80707C60.9938 8.87606 60.9249 8.87606 60.833 8.87606H59.9833L61.7746 4.23108H62.8769L64.6451 8.87606ZM61.7975 2.94336C61.8664 2.94336 61.8894 2.94336 61.9124 2.94336C61.9353 2.94336 61.9812 2.94336 62.0042 2.96635C62.0272 2.96635 62.0731 2.98935 62.0961 2.98935C62.119 3.01234 62.165 3.05833 62.1879 3.08133L62.8539 3.95514H62.119C62.0961 3.95514 62.0501 3.95514 62.0272 3.95514C62.0042 3.95514 61.9583 3.95514 61.9353 3.95514C61.9124 3.95514 61.8664 3.93214 61.8664 3.93214C61.8435 3.93214 61.7975 3.90915 61.7975 3.86316L60.7641 2.94336C60.7871 2.94336 61.7975 2.94336 61.7975 2.94336ZM62.9228 7.10545L62.4865 5.84072C62.4635 5.74874 62.4176 5.65676 62.3716 5.54179C62.3487 5.42681 62.3028 5.31184 62.2568 5.19686C62.2339 5.31184 62.1879 5.44981 62.142 5.54179C62.119 5.65676 62.0731 5.74874 62.0272 5.84072L61.5909 7.10545H62.9228Z" fill="white"/>
<path d="M69.5595 6.57656C69.5595 6.92149 69.4906 7.22042 69.3758 7.49636C69.2609 7.7953 69.0772 8.04824 68.8935 8.2552C68.6868 8.46215 68.4342 8.62311 68.1357 8.73809C67.8372 8.85306 67.4927 8.92205 67.1482 8.92205C66.8037 8.92205 66.4593 8.85306 66.1607 8.73809C65.8622 8.62311 65.6096 8.43916 65.4029 8.2552C65.1962 8.04824 65.0355 7.7953 64.9207 7.49636C64.8058 7.19743 64.7369 6.89849 64.7369 6.57656C64.7369 6.23164 64.8058 5.93271 64.9207 5.65677C65.0355 5.35783 65.2192 5.10489 65.4029 4.89793C65.6096 4.69098 65.8622 4.53001 66.1607 4.41504C66.4593 4.30006 66.8037 4.23108 67.1482 4.23108C67.4927 4.23108 67.8372 4.30006 68.1357 4.41504C68.4342 4.53001 68.6868 4.71397 68.8935 4.89793C69.1002 5.10489 69.2609 5.35783 69.3758 5.65677C69.5136 5.93271 69.5595 6.25463 69.5595 6.57656ZM68.4572 6.57656C68.4572 6.34661 68.4342 6.13966 68.3653 5.9787C68.2964 5.79474 68.2275 5.63377 68.1127 5.5188C67.9979 5.40382 67.8601 5.28885 67.6994 5.21986C67.5156 5.15088 67.3549 5.10489 67.1482 5.10489C66.9415 5.10489 66.7349 5.12788 66.5971 5.21986C66.4133 5.28885 66.2985 5.40382 66.1837 5.5188C66.0689 5.63377 65.977 5.81773 65.9311 5.9787C65.8622 6.16265 65.8392 6.34661 65.8392 6.57656C65.8392 6.80651 65.8622 7.01347 65.9311 7.17443C66 7.35839 66.0689 7.51936 66.1837 7.63433C66.2985 7.74931 66.4363 7.86428 66.5971 7.93327C66.7808 8.00225 66.9415 8.02525 67.1482 8.02525C67.3549 8.02525 67.5156 8.00225 67.6994 7.93327C67.8831 7.86428 67.9979 7.74931 68.1127 7.63433C68.2275 7.51936 68.3194 7.3354 68.3653 7.17443C68.4342 6.99047 68.4572 6.80651 68.4572 6.57656Z" fill="white"/>
<path d="M74.7954 5.12791H73.4865V8.92208H72.4071V5.12791H71.0752V4.2771H74.7495V5.12791H74.7954Z" fill="white"/>
<path d="M79.0209 8.87606H78.1712C78.0793 8.87606 77.9875 8.85306 77.9415 8.80707C77.8726 8.73809 77.8497 8.7151 77.8267 8.62312L77.5741 7.81829H75.8058L75.5532 8.62312C75.5303 8.6921 75.4843 8.73809 75.4384 8.80707C75.3695 8.87606 75.3006 8.87606 75.2088 8.87606H74.3591L76.1503 4.23108H77.2526L79.0209 8.87606ZM77.3215 7.10545L76.8852 5.84073C76.8622 5.74875 76.8163 5.65677 76.7703 5.54179C76.7474 5.42682 76.7014 5.31184 76.6555 5.19687C76.6326 5.31184 76.5866 5.44981 76.5407 5.54179C76.5177 5.65677 76.4718 5.74875 76.4259 5.84073L75.9896 7.10545H77.3215ZM77.2067 9.63489C77.2067 9.70388 77.2067 9.77286 77.1837 9.84185C77.1607 9.91083 77.1148 9.95682 77.0689 9.97982C77 10.0488 76.9541 10.0718 76.8852 10.0948C76.8163 10.1178 76.7474 10.1178 76.6785 10.1178C76.6096 10.1178 76.5407 10.1178 76.4718 10.0948C76.4029 10.0718 76.357 10.0258 76.2881 9.97982C76.2192 9.93383 76.1962 9.88784 76.1733 9.84185C76.1503 9.77286 76.1503 9.72687 76.1503 9.63489C76.1503 9.56591 76.1503 9.49692 76.1733 9.42794C76.1962 9.35895 76.2422 9.31296 76.2881 9.28997C76.357 9.22098 76.3799 9.19799 76.4718 9.17499C76.5637 9.152 76.5866 9.152 76.6785 9.152C76.7474 9.152 76.8163 9.152 76.8852 9.17499C76.9541 9.19799 77 9.24398 77.0689 9.28997C77.1378 9.35895 77.1607 9.38195 77.1837 9.42794C77.1837 9.49692 77.2067 9.54291 77.2067 9.63489Z" fill="white"/>
<path d="M83.9353 6.57656C83.9353 6.92149 83.8664 7.22042 83.7516 7.49636C83.6367 7.7953 83.453 8.04824 83.2693 8.2552C83.0626 8.46215 82.81 8.62311 82.5115 8.73809C82.2129 8.85306 81.8685 8.92205 81.524 8.92205C81.1795 8.92205 80.8351 8.85306 80.5365 8.73809C80.238 8.62311 79.9854 8.43916 79.7787 8.2552C79.572 8.04824 79.4113 7.7953 79.2964 7.49636C79.1816 7.19743 79.1127 6.89849 79.1127 6.57656C79.1127 6.23164 79.1816 5.93271 79.2964 5.65677C79.4113 5.35783 79.595 5.10489 79.7787 4.89793C79.9854 4.69098 80.238 4.53001 80.5365 4.41504C80.8351 4.30006 81.1795 4.23108 81.524 4.23108C81.8685 4.23108 82.2129 4.30006 82.5115 4.41504C82.81 4.53001 83.0626 4.71397 83.2693 4.89793C83.476 5.10489 83.6367 5.35783 83.7516 5.65677C83.8894 5.93271 83.9353 6.25463 83.9353 6.57656ZM82.8559 6.57656C82.8559 6.34661 82.833 6.13966 82.7641 5.9787C82.6952 5.79474 82.6263 5.63377 82.5115 5.5188C82.3967 5.40382 82.2589 5.28885 82.0981 5.21986C81.9144 5.15088 81.7537 5.10489 81.547 5.10489C81.3403 5.10489 81.1336 5.12788 80.9958 5.21986C80.8121 5.28885 80.6973 5.40382 80.5825 5.5188C80.4676 5.63377 80.3758 5.81773 80.3298 5.9787C80.261 6.16265 80.238 6.34661 80.238 6.57656C80.238 6.80651 80.261 7.01347 80.3298 7.17443C80.3987 7.35839 80.4676 7.51936 80.5825 7.63433C80.6973 7.74931 80.8351 7.86428 80.9958 7.93327C81.1795 8.00225 81.3403 8.02525 81.547 8.02525C81.7537 8.02525 81.9144 8.00225 82.0981 7.93327C82.2818 7.86428 82.3967 7.74931 82.5115 7.63433C82.6263 7.51936 82.7182 7.3354 82.7641 7.17443C82.81 6.99047 82.8559 6.80651 82.8559 6.57656Z" fill="white"/>
<path d="M90.0898 4.25403V8.89901H89.0105V6.92144H87.1274V8.89901H86.048V4.25403H87.1274V6.1856H89.0105V4.25403H90.0898Z" fill="white"/>
<path d="M95.142 8.87606H94.2923C94.2004 8.87606 94.1086 8.85306 94.0626 8.80707C93.9937 8.73809 93.9708 8.71509 93.9478 8.62311L93.6952 7.81829H91.9269L91.6743 8.62311C91.6514 8.6921 91.6054 8.73809 91.5595 8.80707C91.4906 8.87606 91.4217 8.87606 91.3299 8.87606H90.4802L92.2714 4.23108H93.3737L95.142 8.87606ZM92.3173 2.94336C92.3862 2.94336 92.4092 2.94336 92.4321 2.94336C92.4551 2.94336 92.501 2.94336 92.524 2.96635C92.547 2.96635 92.5929 2.98935 92.6159 2.98935C92.6388 3.01234 92.6848 3.05833 92.7077 3.08133L93.3737 3.95514H92.6388C92.6159 3.95514 92.5699 3.95514 92.547 3.95514C92.524 3.95514 92.4781 3.95514 92.4551 3.95514C92.4321 3.95514 92.3862 3.93214 92.3862 3.93214C92.3633 3.93214 92.3173 3.90915 92.3173 3.86316L91.2839 2.94336C91.3069 2.94336 92.3173 2.94336 92.3173 2.94336ZM93.4426 7.10545L93.0063 5.84072C92.9833 5.74874 92.9374 5.65676 92.8914 5.54179C92.8685 5.42681 92.8225 5.31184 92.7766 5.19686C92.7536 5.31184 92.7077 5.44981 92.6618 5.54179C92.6388 5.65676 92.5929 5.74874 92.547 5.84072L92.1106 7.10545H93.4426Z" fill="white"/>
<path d="M100.814 4.25403V8.89901H100.263C100.171 8.89901 100.125 8.89901 100.056 8.87601C99.9875 8.85302 99.9416 8.78403 99.8727 8.73804L97.6911 5.97865C97.6911 6.07063 97.6911 6.16261 97.714 6.2086C97.714 6.30058 97.714 6.34657 97.714 6.43855V8.922H96.7495V4.27702H97.3236C97.3925 4.27702 97.4155 4.27702 97.4384 4.27702C97.4614 4.27702 97.5073 4.27702 97.5303 4.30002C97.5533 4.30002 97.5992 4.32301 97.6222 4.369C97.6451 4.41499 97.6911 4.43799 97.714 4.46098L99.9186 7.24337C99.9186 7.15139 99.8957 7.05941 99.8957 6.99043C99.8957 6.89845 99.8957 6.80647 99.8957 6.76048V4.27702H100.791V4.25403H100.814Z" fill="white"/>
<path d="M106.257 6.57658C106.257 6.9215 106.188 7.22044 106.073 7.49638C105.958 7.79531 105.775 8.04825 105.591 8.25521C105.384 8.46216 105.132 8.62313 104.833 8.7381C104.534 8.85308 104.19 8.92206 103.846 8.92206C103.501 8.92206 103.157 8.85308 102.858 8.7381C102.56 8.62313 102.307 8.43917 102.1 8.25521C101.894 8.04825 101.733 7.79531 101.618 7.49638C101.503 7.19744 101.434 6.89851 101.434 6.57658C101.434 6.23165 101.503 5.93272 101.618 5.65678C101.733 5.38084 101.917 5.1049 102.1 4.89795C102.307 4.69099 102.56 4.53003 102.858 4.41505C103.157 4.30008 103.501 4.23109 103.846 4.23109C104.19 4.23109 104.534 4.30008 104.833 4.41505C105.132 4.53003 105.384 4.71399 105.591 4.89795C105.798 5.1049 105.958 5.35784 106.073 5.65678C106.211 5.93272 106.257 6.25465 106.257 6.57658ZM105.155 6.57658C105.155 6.34663 105.132 6.13967 105.063 5.97871C104.994 5.79475 104.925 5.63378 104.81 5.51881C104.695 5.40383 104.557 5.28886 104.397 5.21988C104.213 5.15089 104.052 5.1049 103.846 5.1049C103.639 5.1049 103.432 5.1279 103.294 5.21988C103.111 5.28886 102.996 5.40383 102.881 5.51881C102.766 5.63378 102.674 5.81774 102.628 5.97871C102.56 6.16267 102.537 6.34663 102.537 6.57658C102.537 6.80653 102.56 7.01348 102.628 7.17445C102.697 7.35841 102.766 7.51937 102.881 7.63435C102.996 7.74932 103.134 7.86429 103.294 7.93328C103.478 8.00226 103.639 8.02526 103.846 8.02526C104.052 8.02526 104.213 8.00226 104.397 7.93328C104.58 7.86429 104.695 7.74932 104.81 7.63435C104.925 7.51937 105.017 7.33541 105.063 7.17445C105.132 6.99049 105.155 6.80653 105.155 6.57658ZM105.109 3.95515H104.374C104.351 3.95515 104.282 3.95515 104.236 3.93216C104.167 3.93216 104.121 3.86317 104.052 3.81718L103.914 3.56424C103.914 3.54124 103.891 3.54124 103.891 3.54124L103.868 3.51825C103.868 3.54124 103.846 3.54124 103.846 3.54124L103.823 3.56424L103.685 3.81718C103.616 3.88617 103.57 3.93216 103.501 3.93216C103.432 3.93216 103.386 3.95515 103.363 3.95515H102.674L103.455 3.05835H104.351L105.109 3.95515ZM104.374 9.63491C104.374 9.70389 104.374 9.77288 104.351 9.84186C104.328 9.91085 104.282 9.95684 104.236 9.97983C104.167 10.0028 104.121 10.0718 104.052 10.0948C103.983 10.1178 103.914 10.1178 103.846 10.1178C103.777 10.1178 103.708 10.1178 103.639 10.0948C103.57 10.0718 103.524 10.0258 103.455 9.97983C103.386 9.91085 103.363 9.88785 103.34 9.84186C103.317 9.77288 103.317 9.72689 103.317 9.63491C103.317 9.56592 103.317 9.49694 103.34 9.42795C103.363 9.35897 103.409 9.31298 103.455 9.28998C103.524 9.221 103.547 9.198 103.639 9.17501C103.731 9.15201 103.754 9.15201 103.846 9.15201C103.914 9.15201 103.983 9.15201 104.052 9.17501C104.121 9.198 104.167 9.24399 104.236 9.28998C104.305 9.35897 104.328 9.38196 104.351 9.42795C104.351 9.49694 104.374 9.54293 104.374 9.63491Z" fill="white"/>
<path d="M107.979 8.87601H106.9V4.25403H107.979V8.87601Z" fill="white"/>
<path d="M5.62629 75.7455H4.52399V78.9648H3.62837V75.7455H2.50311V75.0096H5.62629V75.7455Z" fill="white"/>
<path d="M9.2547 78.9647H8.45095C8.31316 78.9647 8.19834 78.8957 8.12944 78.7807L7.46347 77.654C7.44051 77.585 7.39458 77.562 7.34865 77.539C7.32569 77.516 7.25679 77.516 7.16493 77.516H6.93529V78.9647H6.03967V75.0555H7.30272C7.60126 75.0555 7.8309 75.0785 8.03759 75.1475C8.24427 75.2165 8.40502 75.2855 8.51984 75.3775C8.63466 75.4924 8.74949 75.6074 8.81838 75.7454C8.88727 75.8834 8.91024 76.0443 8.91024 76.2053C8.91024 76.3203 8.88727 76.4582 8.84134 76.5502C8.81838 76.6422 8.74949 76.7802 8.70356 76.8721C8.65763 76.9641 8.56577 77.0561 8.45095 77.1251C8.33612 77.2171 8.24427 77.2631 8.10648 77.3091C8.17537 77.332 8.2213 77.378 8.29019 77.424C8.35909 77.493 8.38205 77.516 8.42798 77.608L9.2547 78.9647ZM7.34865 76.8721C7.46347 76.8721 7.5783 76.8491 7.67015 76.8032C7.76201 76.7802 7.80794 76.7112 7.87683 76.6652C7.94573 76.5962 7.96869 76.5502 7.99166 76.4582C8.01462 76.3663 8.01462 76.3203 8.01462 76.2283C8.01462 76.0443 7.94573 75.9064 7.8309 75.8144C7.71608 75.7224 7.53237 75.6764 7.30272 75.6764H6.93529V76.8262H7.34865V76.8721Z" fill="white"/>
<path d="M11.2066 78.2519C11.3215 78.2519 11.4363 78.2289 11.5281 78.1829C11.62 78.1599 11.7119 78.091 11.7578 77.999C11.8267 77.907 11.8726 77.815 11.8956 77.7C11.9185 77.5851 11.9645 77.4701 11.9645 77.3321V75.0096H12.8601V77.3321C12.8601 77.5621 12.8371 77.792 12.7453 77.999C12.6534 78.2059 12.5386 78.3669 12.4008 78.5279C12.263 78.6658 12.0793 78.7808 11.8726 78.8728C11.6659 78.9648 11.4363 78.9878 11.1837 78.9878C10.9311 78.9878 10.7014 78.9648 10.4947 78.8728C10.2881 78.7808 10.1273 78.6658 9.96655 78.5279C9.8058 78.3899 9.71394 78.2059 9.62209 77.999C9.53023 77.792 9.50726 77.5621 9.50726 77.3321V75.0096H10.4029V77.3321C10.4029 77.4701 10.4258 77.5851 10.4718 77.7C10.4947 77.815 10.5636 77.907 10.6096 77.999C10.6785 78.091 10.7473 78.137 10.8392 78.1829C10.977 78.2059 11.0918 78.2519 11.2066 78.2519Z" fill="white"/>
<path d="M17.0167 75.0326V78.9418H16.5574C16.4885 78.9418 16.4426 78.9418 16.3737 78.9188C16.3048 78.8958 16.2818 78.8498 16.2359 78.8038L14.3758 76.4583C14.3758 76.5273 14.3758 76.5963 14.3987 76.6653C14.3987 76.7343 14.3987 76.7803 14.3987 76.8492V78.9648H13.595V75.0556H14.0543C14.0772 75.0556 14.1461 75.0556 14.1461 75.0556C14.1461 75.0556 14.215 75.0556 14.238 75.0786C14.2609 75.0786 14.2609 75.1016 14.3069 75.1016C14.3298 75.1246 14.3298 75.1246 14.3758 75.1936L16.2359 77.5391C16.2359 77.4471 16.2129 77.4011 16.2129 77.3091C16.2129 77.2402 16.2129 77.1712 16.2129 77.1022V75.0096H17.0626V75.0326H17.0167Z" fill="white"/>
<path d="M19.6576 76.9411H21.0584V78.5968C20.8517 78.7347 20.6451 78.8497 20.4154 78.9187C20.1858 78.9877 19.9561 79.0107 19.6805 79.0107C19.359 79.0107 19.0835 78.9417 18.8079 78.8727C18.5553 78.7577 18.3256 78.6428 18.1419 78.4358C17.9352 78.2519 17.7975 78.0679 17.7056 77.792C17.5908 77.562 17.5678 77.2631 17.5678 76.9871C17.5678 76.7112 17.6367 76.4353 17.7056 76.1823C17.7975 75.9524 17.9352 75.7224 18.119 75.5384C18.3027 75.3545 18.5323 75.2165 18.7849 75.1245C19.0375 75.0326 19.3361 74.9866 19.6576 74.9866C19.8413 74.9866 19.9791 74.9866 20.1169 75.0096C20.2547 75.0326 20.4154 75.0786 20.5302 75.1245C20.6451 75.1935 20.7599 75.2395 20.8517 75.3085C20.9436 75.3775 21.0584 75.4465 21.1043 75.5155L20.8517 75.9294C20.8288 75.9984 20.7599 76.0443 20.668 76.0443C20.5991 76.0673 20.5302 76.0443 20.4613 75.9754C20.3924 75.9524 20.3236 75.8834 20.2547 75.8604C20.1858 75.8374 20.1398 75.7914 20.048 75.7684C19.9791 75.7454 19.9102 75.7454 19.8413 75.7454C19.7494 75.7454 19.7035 75.7454 19.5887 75.7454C19.405 75.7454 19.2672 75.7684 19.1294 75.8374C18.9916 75.9064 18.8768 75.9754 18.7849 76.0903C18.6931 76.2053 18.6012 76.3203 18.5553 76.5042C18.4864 76.6422 18.4634 76.8262 18.4634 77.0331C18.4634 77.2401 18.4864 77.447 18.5553 77.585C18.6242 77.769 18.6931 77.8839 18.7849 77.9989C18.8998 78.1139 19.0146 78.2059 19.1524 78.2519C19.2901 78.3208 19.4739 78.3438 19.6346 78.3438C19.7494 78.3438 19.8413 78.3438 19.9332 78.3208C20.025 78.2978 20.1169 78.2519 20.1858 78.2289V77.631H19.8413C19.7724 77.631 19.7265 77.608 19.7035 77.562C19.6805 77.539 19.6346 77.493 19.6346 77.447V76.9411H19.6576Z" fill="white"/>
<path d="M25.5595 75.7455H24.4572V78.9648H23.5616V75.7455H22.4593V75.0096H25.5825L25.5595 75.7455Z" fill="white"/>
<path d="M29.1879 78.9647H28.4989C28.4071 78.9647 28.3611 78.9418 28.2923 78.8958C28.2234 78.8728 28.2004 78.8038 28.1774 78.7578L27.9478 78.0679H26.4321L26.2025 78.7578C26.1795 78.8268 26.1336 78.8498 26.0877 78.8958C26.0188 78.9188 25.9728 78.9647 25.881 78.9647H25.1461L26.6618 75.0556H27.5804L29.1879 78.9647ZM28.2234 74.8027H27.6263C27.6033 74.8027 27.5574 74.8027 27.5115 74.7797C27.4426 74.7567 27.4196 74.7107 27.3737 74.6647L27.2359 74.4577L27.2129 74.4347L27.19 74.4117L27.167 74.4347L27.144 74.4577L27.0062 74.6647C26.9373 74.7337 26.9144 74.7567 26.8685 74.7797C26.7996 74.8027 26.7766 74.8027 26.7536 74.8027H26.1795L26.8455 74.0438H27.6033L28.2234 74.8027ZM27.7411 77.4701L27.3737 76.3893C27.3507 76.3203 27.3048 76.2513 27.2818 76.1594C27.2589 76.0674 27.2129 75.9524 27.19 75.8604C27.167 75.9754 27.1211 76.0674 27.0981 76.1824C27.0751 76.2743 27.0292 76.3663 27.0062 76.4123L26.6618 77.4931H27.7411V77.4701Z" fill="white"/>
<path d="M33.8956 75.0326V78.9417H33.0918V76.6882C33.0918 76.6192 33.0918 76.5733 33.0918 76.5043C33.0918 76.4353 33.0918 76.3893 33.1148 76.3203L32.0814 78.3439C32.0584 78.4129 31.9895 78.4588 31.9436 78.4818C31.8747 78.5048 31.8288 78.5508 31.7599 78.5508H31.6451C31.5762 78.5508 31.5073 78.5278 31.4613 78.4818C31.3924 78.4588 31.3695 78.3899 31.3235 78.3439L30.2901 76.3203C30.2901 76.3893 30.2901 76.4353 30.2901 76.5273C30.2901 76.5962 30.2901 76.6422 30.2901 76.7112V78.9647H29.4864V75.0556H30.1753C30.1983 75.0556 30.2672 75.0556 30.2901 75.0556C30.3131 75.0556 30.359 75.0556 30.382 75.0786C30.405 75.0786 30.4509 75.1016 30.4509 75.1016C30.4739 75.1246 30.4739 75.1706 30.5198 75.1936L31.5302 77.1941C31.5532 77.2631 31.5991 77.3321 31.6451 77.4011C31.668 77.4931 31.7139 77.539 31.7369 77.631C31.7599 77.539 31.8058 77.4931 31.8288 77.4011C31.8517 77.3091 31.8977 77.2631 31.9436 77.1941L32.954 75.2166C32.977 75.1936 32.977 75.1476 33.0229 75.1246C33.0459 75.1016 33.0459 75.1016 33.0918 75.1016C33.1148 75.1016 33.1607 75.1016 33.1837 75.0786C33.2066 75.0786 33.2526 75.0786 33.2985 75.0786H33.9645V75.0326H33.8956Z" fill="white"/>
<path d="M39.3152 75.0326V78.9418H38.8559C38.787 78.9418 38.7411 78.9418 38.6722 78.9188C38.6033 78.8958 38.5803 78.8498 38.5344 78.8038L36.6743 76.4583C36.6743 76.5273 36.6743 76.5963 36.6973 76.6653C36.6973 76.7343 36.6973 76.7803 36.6973 76.8492V78.9648H35.8935V75.0556H36.3757C36.3987 75.0556 36.4676 75.0556 36.4676 75.0556C36.4676 75.0556 36.5365 75.0556 36.5595 75.0786C36.5824 75.0786 36.5824 75.1016 36.6284 75.1016C36.6513 75.1246 36.6513 75.1246 36.6973 75.1936L38.5574 77.5391C38.5574 77.4471 38.5344 77.4011 38.5344 77.3091C38.5344 77.2402 38.5344 77.1712 38.5344 77.1022V75.0096H39.3382L39.3152 75.0326Z" fill="white"/>
<path d="M41.9562 76.9411H43.357V78.5968C43.1503 78.7347 42.9436 78.8497 42.714 78.9187C42.4843 78.9877 42.2547 79.0107 41.9791 79.0107C41.6576 79.0107 41.3821 78.9417 41.1065 78.8727C40.8539 78.7577 40.6242 78.6428 40.4405 78.4358C40.2338 78.2519 40.096 78.0679 40.0042 77.792C39.8894 77.562 39.8664 77.2631 39.8664 76.9871C39.8664 76.7112 39.9353 76.4353 40.0042 76.1823C40.096 75.9524 40.2338 75.7224 40.4175 75.5384C40.6013 75.3545 40.8309 75.2165 41.0835 75.1245C41.3361 75.0326 41.6347 74.9866 41.9562 74.9866C42.1399 74.9866 42.2777 74.9866 42.4155 75.0096C42.5532 75.0326 42.714 75.0786 42.8288 75.1245C42.9436 75.1935 43.0585 75.2395 43.1503 75.3085C43.2422 75.3775 43.357 75.4465 43.4029 75.5155L43.1503 75.9294C43.1274 75.9984 43.0585 76.0443 42.9666 76.0443C42.8977 76.0673 42.8288 76.0443 42.7599 75.9754C42.691 75.9524 42.6221 75.8834 42.5532 75.8604C42.4843 75.8374 42.4384 75.7914 42.3466 75.7684C42.2777 75.7454 42.2088 75.7454 42.1399 75.7454C42.048 75.7454 42.0021 75.7454 41.8873 75.7454C41.7036 75.7454 41.5658 75.7684 41.428 75.8374C41.2902 75.9064 41.1754 75.9754 41.0835 76.0903C40.9917 76.2053 40.8998 76.3203 40.8539 76.5042C40.785 76.6422 40.762 76.8262 40.762 77.0331C40.762 77.2401 40.785 77.447 40.8539 77.585C40.9228 77.769 40.9917 77.8839 41.0835 77.9989C41.1983 78.1139 41.3132 78.2059 41.4509 78.2519C41.5887 78.3208 41.7724 78.3438 41.9332 78.3438C42.048 78.3438 42.1399 78.3438 42.2317 78.3208C42.3236 78.2978 42.4155 78.2519 42.4843 78.2289V77.631H42.1399C42.071 77.631 42.0251 77.608 42.0021 77.562C41.9791 77.539 41.9332 77.493 41.9332 77.447L41.9562 76.9411Z" fill="white"/>
<path d="M47.8121 76.9871C47.8121 77.2861 47.7432 77.539 47.6743 77.769C47.5825 77.9989 47.4447 78.2289 47.261 78.4128C47.0772 78.5968 46.8476 78.7347 46.618 78.8497C46.3653 78.9647 46.0898 78.9877 45.7683 78.9877C45.4468 78.9877 45.1942 78.9187 44.9186 78.8497C44.666 78.7577 44.4593 78.6198 44.2756 78.4128C44.0919 78.2289 43.9541 77.9989 43.8622 77.769C43.7704 77.539 43.7244 77.2401 43.7244 76.9871C43.7244 76.7342 43.7933 76.4353 43.8622 76.2053C43.9311 75.9754 44.0919 75.7454 44.2756 75.5614C44.4593 75.3775 44.6889 75.2395 44.9186 75.1245C45.1482 75.0096 45.4468 74.9866 45.7683 74.9866C46.0898 74.9866 46.3424 75.0556 46.618 75.1245C46.8706 75.2395 47.0772 75.3545 47.261 75.5614C47.4447 75.7454 47.5825 75.9754 47.6743 76.2053C47.7662 76.4582 47.8121 76.7112 47.8121 76.9871ZM46.8935 76.9871C46.8935 76.7802 46.8706 76.6192 46.8017 76.4582C46.7328 76.3203 46.6868 76.1593 46.595 76.0443C46.5031 75.9294 46.3883 75.8374 46.2505 75.7914C46.1127 75.7224 45.952 75.6994 45.7912 75.6994C45.6305 75.6994 45.4697 75.7224 45.3319 75.7914C45.1942 75.8604 45.0793 75.9294 44.9875 76.0443C44.8956 76.1593 44.8038 76.2743 44.7808 76.4582C44.7119 76.5962 44.6889 76.7802 44.6889 76.9871C44.6889 77.1941 44.7119 77.3551 44.7808 77.516C44.8497 77.654 44.8956 77.8149 44.9875 77.9299C45.0793 78.0449 45.1942 78.1369 45.3319 78.1829C45.4697 78.2519 45.6305 78.2748 45.7912 78.2748C45.952 78.2748 46.1127 78.2519 46.2505 78.1829C46.3883 78.1139 46.5031 78.0449 46.595 77.9299C46.6868 77.8149 46.7787 77.7 46.8017 77.516C46.8706 77.378 46.8935 77.1941 46.8935 76.9871Z" fill="white"/>
<path d="M51.739 78.9647H51.0501C50.9582 78.9647 50.9123 78.9417 50.8434 78.8957C50.7745 78.8727 50.7515 78.8037 50.7286 78.7577L50.4989 78.0679H48.9833L48.7536 78.7577C48.7307 78.8267 48.6847 78.8497 48.6388 78.8957C48.5699 78.9187 48.524 78.9647 48.4321 78.9647H47.6973L49.2129 75.0555H50.1315L51.739 78.9647ZM50.2923 77.47L49.9248 76.3893C49.9019 76.3203 49.8559 76.2513 49.833 76.1593C49.81 76.0673 49.7641 75.9523 49.7411 75.8604C49.7181 75.9753 49.6722 76.0673 49.6492 76.1823C49.6263 76.2743 49.5804 76.3663 49.5574 76.4122L49.2129 77.493H50.2923V77.47ZM50.2004 79.5855C50.2004 79.6545 50.2004 79.7005 50.1774 79.7695C50.1545 79.8385 50.1085 79.8615 50.0856 79.9075C50.0626 79.9305 49.9937 79.9765 49.9478 79.9995C49.8789 80.0225 49.833 80.0225 49.7641 80.0225C49.6952 80.0225 49.6492 80.0225 49.5804 79.9995C49.5115 79.9765 49.4885 79.9305 49.4426 79.9075C49.4196 79.8845 49.3737 79.8155 49.3507 79.7695C49.3277 79.7235 49.3277 79.6545 49.3277 79.5855C49.3277 79.5166 49.3277 79.4706 49.3507 79.4016C49.3737 79.3326 49.4196 79.3096 49.4426 79.2636C49.4655 79.2406 49.5344 79.1946 49.5804 79.1716C49.6263 79.1486 49.6952 79.1486 49.7641 79.1486C49.833 79.1486 49.8789 79.1486 49.9478 79.1716C50.0167 79.1946 50.0396 79.2406 50.0856 79.2636C50.1085 79.2866 50.1545 79.3556 50.1774 79.4016C50.1774 79.4706 50.2004 79.5166 50.2004 79.5855Z" fill="white"/>
<path d="M52.9791 78.9647H52.0605V75.0555H52.9791V78.9647Z" fill="white"/>
<path d="M58.3758 75.0326V78.9418H57.9165C57.8476 78.9418 57.8016 78.9418 57.7327 78.9188C57.6639 78.8958 57.6409 78.8498 57.595 78.8038L55.7348 76.4583C55.7348 76.5273 55.7348 76.5963 55.7578 76.6653C55.7578 76.7343 55.7578 76.7803 55.7578 76.8492V78.9648H54.954V75.0556H55.4363C55.4593 75.0556 55.5282 75.0556 55.5282 75.0556C55.5282 75.0556 55.597 75.0556 55.62 75.0786C55.643 75.0786 55.643 75.1016 55.6889 75.1016C55.7119 75.1246 55.7119 75.1246 55.7578 75.1936L57.6179 77.5391C57.6179 77.4471 57.595 77.4011 57.595 77.3091C57.595 77.2402 57.595 77.1712 57.595 77.1022V75.0096H58.3987L58.3758 75.0326Z" fill="white"/>
<path d="M61.0167 76.9411H62.4175V78.5968C62.2109 78.7347 62.0042 78.8497 61.7745 78.9187C61.5449 78.9877 61.3152 79.0107 61.0397 79.0107C60.7182 79.0107 60.4426 78.9417 60.167 78.8727C59.9144 78.7577 59.6848 78.6428 59.5011 78.4358C59.2944 78.2519 59.1566 78.0679 59.0647 77.792C58.9499 77.562 58.9269 77.2631 58.9269 76.9871C58.9269 76.7112 58.9958 76.4353 59.0647 76.1823C59.1566 75.9524 59.2944 75.7224 59.4781 75.5384C59.6618 75.3545 59.8914 75.2165 60.1441 75.1245C60.3967 75.0326 60.6952 74.9866 61.0167 74.9866C61.2004 74.9866 61.3382 74.9866 61.476 75.0096C61.6138 75.0326 61.7745 75.0786 61.8894 75.1245C62.0042 75.1935 62.119 75.2395 62.2109 75.3085C62.3027 75.3775 62.4175 75.4465 62.4635 75.5155L62.2109 75.9294C62.1879 75.9984 62.119 76.0443 62.0271 76.0443C61.9583 76.0673 61.8894 76.0443 61.8205 75.9754C61.7516 75.9524 61.6827 75.8834 61.6138 75.8604C61.5449 75.8374 61.499 75.7914 61.4071 75.7684C61.3382 75.7454 61.2693 75.7454 61.2004 75.7454C61.1086 75.7454 61.0626 75.7454 60.9478 75.7454C60.7641 75.7454 60.6263 75.7684 60.4885 75.8374C60.3507 75.9064 60.2359 75.9754 60.1441 76.0903C60.0522 76.2053 59.9603 76.3203 59.9144 76.5042C59.8455 76.6422 59.8226 76.8262 59.8226 77.0331C59.8226 77.2401 59.8455 77.447 59.9144 77.585C59.9833 77.769 60.0522 77.8839 60.1441 77.9989C60.2589 78.1139 60.3737 78.2059 60.5115 78.2519C60.6493 78.3208 60.833 78.3438 60.9937 78.3438C61.1086 78.3438 61.2004 78.3438 61.2923 78.3208C61.3841 78.2978 61.476 78.2519 61.5449 78.2289V77.631H61.1775C61.1086 77.631 61.0626 77.608 61.0397 77.562C61.0167 77.539 60.9708 77.493 60.9708 77.447V76.9871H61.0167V76.9411Z" fill="white"/>
<path d="M67.5386 74.6186C67.5386 74.6416 67.5616 74.7106 67.5616 74.7566C67.5616 74.8026 67.5616 74.8716 67.5616 74.9406C67.5616 75.0785 67.5386 75.1935 67.4927 75.3545C67.4697 75.4924 67.3778 75.5844 67.286 75.6764C67.1941 75.7684 67.0563 75.8604 66.9186 75.9063C66.7808 75.9753 66.5741 75.9983 66.3674 75.9983V77.355C66.3674 77.585 66.3444 77.8149 66.2526 78.0219C66.1607 78.2288 66.0459 78.3898 65.9081 78.5508C65.7703 78.6887 65.5866 78.8037 65.3799 78.8957C65.1733 78.9877 64.9436 79.0107 64.691 79.0107C64.4384 79.0107 64.2087 78.9877 64.0021 78.8957C63.7954 78.8037 63.6346 78.6887 63.4739 78.5508C63.3361 78.4128 63.2213 78.2288 63.1294 78.0219C63.0376 77.8149 63.0146 77.585 63.0146 77.355V75.0325H63.9102V77.355C63.9102 77.493 63.9332 77.608 63.9791 77.7229C64.025 77.8379 64.071 77.9299 64.1169 78.0219C64.1858 78.1139 64.2547 78.1598 64.3465 78.2058C64.4384 78.2288 64.5532 78.2748 64.668 78.2748C64.7829 78.2748 64.8977 78.2518 64.9895 78.2058C65.0814 78.1828 65.1733 78.1139 65.2192 78.0219C65.2881 77.9299 65.334 77.8379 65.357 77.7229C65.3799 77.608 65.4259 77.493 65.4259 77.355V75.0325H66.3215V75.5844C66.4593 75.5844 66.5741 75.5614 66.643 75.4924C66.7119 75.4234 66.7348 75.3775 66.7348 75.3085C66.7348 75.2855 66.7348 75.2395 66.7119 75.2165C66.7119 75.1935 66.6889 75.1475 66.6889 75.1245C66.6889 75.1015 66.6659 75.0555 66.6659 75.0325C66.6659 75.0095 66.643 74.9405 66.643 74.9176C66.643 74.8026 66.6659 74.7336 66.7578 74.6876C66.8267 74.6186 66.9415 74.5956 67.0793 74.5956L67.5386 74.6186ZM65.0355 74.2967C65.0584 74.2967 65.1273 74.2967 65.1273 74.2737C65.1273 74.2507 65.1962 74.2507 65.1962 74.2047C65.2192 74.1817 65.2192 74.1357 65.2192 74.1127C65.2192 74.0897 65.2192 74.0437 65.2192 74.0208H65.7014C65.7014 74.1127 65.7014 74.2277 65.6785 74.3197C65.6555 74.4117 65.6096 74.5037 65.5636 74.5496C65.4948 74.6186 65.4488 74.6646 65.357 74.7336C65.2651 74.7566 65.1733 74.8026 65.1044 74.8026C65.0355 74.8026 64.9206 74.8026 64.8517 74.7796C64.7829 74.7566 64.714 74.7106 64.6451 74.6876C64.5762 74.6646 64.5302 74.6186 64.5073 74.5956C64.4384 74.5726 64.4154 74.5726 64.3695 74.5726C64.3465 74.5726 64.2776 74.5726 64.2776 74.5956C64.2547 74.6186 64.2087 74.6186 64.2087 74.6646C64.1858 74.6876 64.1858 74.7336 64.1858 74.7566C64.1858 74.7796 64.1858 74.8256 64.1858 74.8486H63.6576C63.6576 74.7566 63.6576 74.6416 63.6806 74.5496C63.7035 74.4577 63.7495 74.3657 63.7954 74.3197C63.8643 74.2507 63.9102 74.2047 64.0021 74.1357C64.0939 74.1127 64.1858 74.0667 64.2547 74.0667C64.3465 74.0667 64.4384 74.0667 64.5073 74.0897C64.5991 74.1127 64.6451 74.1587 64.714 74.1817C64.7829 74.2047 64.8288 74.2507 64.8517 74.2737C64.8977 74.2967 64.9895 74.2967 65.0355 74.2967Z" fill="white"/>
<path d="M70.2484 75.0326C70.547 75.0326 70.7766 75.0556 70.9833 75.1246C71.19 75.1936 71.3278 75.2626 71.4655 75.3776C71.5804 75.4925 71.6952 75.6305 71.7641 75.7915C71.833 75.9294 71.8559 76.1134 71.8559 76.2744C71.8559 76.4813 71.833 76.6423 71.7641 76.8262C71.6952 77.0102 71.6263 77.1252 71.4655 77.2631C71.3278 77.4011 71.167 77.4701 70.9833 77.5161C70.7766 77.5851 70.547 77.6081 70.2944 77.6081H69.8351V78.9188H68.9395V75.0096H70.2714V75.0326H70.2484ZM70.2484 76.9642C70.4781 76.9642 70.6618 76.8952 70.7766 76.7803C70.8914 76.6653 70.9144 76.5273 70.9144 76.3204C70.9144 76.2284 70.9144 76.1364 70.8914 76.0904C70.8685 75.9984 70.8225 75.9524 70.7766 75.8834C70.7077 75.8145 70.6618 75.7915 70.5699 75.7685C70.4781 75.7455 70.3862 75.7455 70.2714 75.7455H69.8121V76.9872H70.2484V76.9642Z" fill="white"/>
<path d="M75.737 75.0326V78.9417H74.8184V77.2861H73.2338V78.9417H72.3152V75.0326H73.2338V76.6882H74.8184V75.0326H75.737Z" fill="white"/>
<path d="M80.0083 78.9647H79.3194C79.2275 78.9647 79.1816 78.9417 79.1127 78.8957C79.0438 78.8727 79.0208 78.8038 78.9979 78.7578L78.7682 78.0679H77.2526L77.0229 78.7578C77 78.8268 76.954 78.8498 76.9081 78.8957C76.8392 78.9187 76.7933 78.9647 76.7014 78.9647H75.9666L77.4822 75.0556H78.4008L80.0083 78.9647ZM78.5615 77.4701L78.1941 76.3893C78.1711 76.3203 78.1252 76.2513 78.1023 76.1593C78.0793 76.0674 78.0334 75.9524 78.0104 75.8604C77.9874 75.9754 77.9415 76.0674 77.9185 76.1823C77.8956 76.2743 77.8496 76.3663 77.8267 76.4123L77.4822 77.4931H78.5615V77.4701ZM79.2505 73.9288L78.3778 74.7107C78.3549 74.7337 78.3549 74.7337 78.3089 74.7796C78.286 74.8026 78.286 74.8026 78.24 74.8026C78.2171 74.8026 78.1711 74.8026 78.1711 74.8026C78.1482 74.8026 78.1023 74.8026 78.0793 74.8026H77.4822L78.0104 74.0668C78.0334 74.0438 78.0334 73.9978 78.0793 73.9978C78.1023 73.9978 78.1023 73.9748 78.1482 73.9748C78.1941 73.9748 78.2171 73.9748 78.24 73.9518C78.263 73.9518 78.3089 73.9518 78.3549 73.9518L79.2505 73.9288Z" fill="white"/>
<path d="M81.6847 75.0326C81.9833 75.0326 82.2129 75.0556 82.4196 75.1246C82.6263 75.1936 82.7641 75.2626 82.9018 75.3776C83.0167 75.4925 83.1315 75.6305 83.2004 75.7915C83.2693 75.9294 83.2922 76.1134 83.2922 76.2744C83.2922 76.4813 83.2693 76.6423 83.2004 76.8262C83.1315 77.0102 83.0626 77.1252 82.9018 77.2631C82.7641 77.4011 82.6033 77.4701 82.4196 77.5161C82.2129 77.5851 81.9833 77.6081 81.7307 77.6081H81.2484V78.9188H80.3528V75.0096H81.7077V75.0326H81.6847ZM81.6847 76.9642C81.9144 76.9642 82.0981 76.8952 82.2129 76.7803C82.3277 76.6653 82.3507 76.5273 82.3507 76.3204C82.3507 76.2284 82.3507 76.1364 82.3277 76.0904C82.3048 75.9984 82.2588 75.9524 82.2129 75.8834C82.144 75.8145 82.0981 75.7915 82.0062 75.7685C81.9144 75.7455 81.8225 75.7455 81.7077 75.7455H81.2254V76.9872H81.6847V76.9642Z" fill="white"/>
<path d="M88.1377 75.0326L86.5762 78.9417H85.7724L84.2108 75.0326H84.9457C85.0375 75.0326 85.0835 75.0556 85.1524 75.1016C85.2212 75.1246 85.2442 75.1936 85.2672 75.2396L86.025 77.3551C86.048 77.4471 86.0939 77.562 86.1398 77.654C86.2087 77.746 86.2087 77.884 86.2317 77.9989C86.2547 77.884 86.3006 77.769 86.3235 77.654C86.3465 77.539 86.3924 77.4471 86.4154 77.3551L87.1732 75.2396C87.1962 75.1706 87.2421 75.1476 87.2881 75.1016C87.357 75.0786 87.4029 75.0326 87.4947 75.0326H88.1377Z" fill="white"/>
<path d="M89.3549 78.9647H88.4363V75.0555H89.3549V78.9647Z" fill="white"/>
<path d="M91.0313 75.7225V76.6423H92.2714V77.3091H91.0313V78.2289H92.6618V78.9188H90.1357V75.0096H92.6618V75.6995H91.0313V75.7225ZM92.4781 74.8027H91.881C91.858 74.8027 91.8121 74.8027 91.7662 74.7797C91.6973 74.7797 91.6743 74.7107 91.6284 74.6647L91.4906 74.4577L91.4676 74.4347L91.4447 74.4117L91.4217 74.4347L91.3987 74.4577L91.2609 74.6647C91.192 74.7337 91.1691 74.7567 91.1232 74.7797C91.0543 74.8027 91.0313 74.8027 91.0083 74.8027H90.4342L91.1002 74.0438H91.858L92.4781 74.8027ZM91.9269 79.5856C91.9269 79.6546 91.9269 79.7006 91.904 79.7696C91.881 79.8386 91.8351 79.8615 91.8121 79.9075C91.7891 79.9305 91.7202 79.9765 91.6743 79.9995C91.6054 80.0225 91.5595 80.0225 91.4906 80.0225C91.4217 80.0225 91.3758 80.0225 91.3069 79.9995C91.238 79.9765 91.215 79.9305 91.1691 79.9075C91.1461 79.8845 91.1002 79.8156 91.0772 79.7696C91.0543 79.7006 91.0543 79.6546 91.0543 79.5856C91.0543 79.5166 91.0543 79.4706 91.0772 79.4016C91.1002 79.3327 91.1461 79.3097 91.1691 79.2637C91.192 79.2407 91.2609 79.1947 91.3069 79.1717C91.3528 79.1487 91.4217 79.1487 91.4906 79.1487C91.5595 79.1487 91.6054 79.1487 91.6743 79.1717C91.7432 79.1947 91.7662 79.2407 91.8121 79.2637C91.8351 79.2867 91.881 79.3557 91.904 79.4016C91.904 79.4706 91.9269 79.5166 91.9269 79.5856Z" fill="white"/>
<path d="M96.0146 75.7455H94.9123V78.9648H94.0167V75.7455H92.9144V75.0096H96.0375V75.7455H96.0146Z" fill="white"/>
<path d="M100.217 77.9529C100.24 77.9529 100.24 77.9529 100.286 77.9529C100.309 77.9529 100.309 77.9759 100.355 77.9759L100.699 78.3439C100.562 78.5508 100.355 78.7118 100.102 78.8038C99.8727 78.9187 99.5741 78.9417 99.2526 78.9417C98.9541 78.9417 98.6785 78.8727 98.4489 78.8038C98.2192 78.6888 98.0125 78.5738 97.8518 78.3668C97.6681 78.1599 97.5532 77.9989 97.4843 77.723C97.3925 77.493 97.3466 77.1941 97.3466 76.9182C97.3466 76.6422 97.4155 76.3663 97.4843 76.1133C97.5762 75.8834 97.714 75.6534 97.8977 75.4695C98.0814 75.2855 98.2651 75.1476 98.4948 75.0556C98.7244 74.9636 98.977 74.9176 99.2756 74.9176C99.4134 74.9176 99.5741 74.9176 99.6889 74.9406C99.8038 74.9636 99.9416 75.0096 100.056 75.0556C100.171 75.1246 100.286 75.1476 100.378 75.2395C100.47 75.3085 100.562 75.3775 100.63 75.4465L100.309 75.8604C100.286 75.8834 100.286 75.9294 100.24 75.9294C100.217 75.9294 100.171 75.9524 100.125 75.9524C100.102 75.9524 100.056 75.9524 100.033 75.9294C100.01 75.9294 99.9645 75.9064 99.9416 75.8604C99.9186 75.8374 99.8727 75.8374 99.8267 75.7914C99.8038 75.7684 99.7349 75.7224 99.6889 75.7224C99.62 75.6994 99.5741 75.6994 99.5052 75.6534C99.4363 75.6304 99.3674 75.6304 99.2526 75.6304C99.1148 75.6304 98.9541 75.6534 98.8393 75.7224C98.7244 75.7914 98.6096 75.8604 98.5177 75.9524C98.4259 76.0674 98.334 76.1823 98.3111 76.3663C98.2881 76.5502 98.2192 76.6882 98.2192 76.8952C98.2192 77.1021 98.2422 77.2631 98.3111 77.447C98.38 77.585 98.4259 77.746 98.5407 77.861C98.6326 77.9759 98.7474 78.0449 98.8622 78.0909C98.977 78.1599 99.1148 78.1829 99.2756 78.1829C99.3674 78.1829 99.4134 78.1829 99.5052 78.1829C99.5971 78.1829 99.643 78.1599 99.7119 78.1599C99.7808 78.1369 99.8267 78.0909 99.8956 78.0679C99.9645 78.0449 100.01 77.9989 100.033 77.9529C100.056 77.9299 100.102 77.9299 100.102 77.884C100.079 77.861 100.194 77.9529 100.217 77.9529Z" fill="white"/>
<path d="M102.008 75.7224V76.7112H103.34V77.4011H102.008V78.9417H101.09V75.0326H103.616V75.7224H102.008Z" fill="white"/>
<path d="M107.658 75.0326L106.096 78.9417H105.292L103.731 75.0326H104.466C104.557 75.0326 104.603 75.0556 104.672 75.1016C104.741 75.1246 104.764 75.1936 104.787 75.2396L105.545 77.3551C105.568 77.4471 105.614 77.562 105.66 77.654C105.729 77.746 105.729 77.884 105.752 77.9989C105.774 77.884 105.82 77.769 105.843 77.654C105.866 77.539 105.912 77.4471 105.935 77.3551L106.693 75.2396C106.716 75.1706 106.762 75.1476 106.808 75.1016C106.877 75.0786 106.923 75.0326 107.015 75.0326H107.658Z" fill="white"/>
</svg>
