<svg width="24" height="25" viewBox="0 0 24 25" fill="none" xmlns="http://www.w3.org/2000/svg">
<path d="M12 23.25C6.07 23.25 1.25 18.43 1.25 12.5C1.25 6.57 6.07 1.75 12 1.75C17.93 1.75 22.75 6.57 22.75 12.5C22.75 18.43 17.93 23.25 12 23.25ZM12 3.25C6.9 3.25 2.75 7.4 2.75 12.5C2.75 17.6 6.9 21.75 12 21.75C17.1 21.75 21.25 17.6 21.25 12.5C21.25 7.4 17.1 3.25 12 3.25Z" fill="white"/>
<path d="M15.0002 16.5C14.4402 16.5 13.9902 16.05 13.9902 15.5C13.9902 14.95 14.4402 14.5 14.9902 14.5C15.5402 14.5 15.9902 14.95 15.9902 15.5C15.9902 16.05 15.5502 16.5 15.0002 16.5Z" fill="white"/>
<path d="M9.01001 10.5C8.45001 10.5 8 10.05 8 9.5C8 8.95 8.45 8.5 9 8.5C9.55 8.5 10 8.95 10 9.5C10 10.05 9.56001 10.5 9.01001 10.5Z" fill="white"/>
<path d="M8.99948 16.25C8.80948 16.25 8.61945 16.18 8.46945 16.03C8.17945 15.74 8.17945 15.2599 8.46945 14.9699L14.4695 8.96994C14.7595 8.67994 15.2395 8.67994 15.5295 8.96994C15.8195 9.25994 15.8195 9.74 15.5295 10.03L9.52951 16.03C9.37951 16.18 9.18948 16.25 8.99948 16.25Z" fill="white"/>
</svg>
