<svg width="24" height="24" viewBox="0 0 24 24" fill="none" xmlns="http://www.w3.org/2000/svg">
<path d="M10.54 21.94C10.31 21.94 10.09 21.84 9.94002 21.64L8.93002 20.29C8.72002 20.01 8.44002 19.85 8.14002 19.83C7.83002 19.81 7.54002 19.95 7.30002 20.2C5.85002 21.75 4.75002 21.62 4.22002 21.42C3.68002 21.21 2.77002 20.52 2.77002 18.3V7.04C2.77002 2.6 4.05002 1.25 8.24002 1.25H15.79C19.98 1.25 21.26 2.6 21.26 7.04V11.3C21.26 11.71 20.92 12.05 20.51 12.05C20.1 12.05 19.76 11.71 19.76 11.3V7.04C19.76 3.43 19.13 2.75 15.79 2.75H8.24002C4.90002 2.75 4.27002 3.43 4.27002 7.04V18.3C4.27002 19.35 4.53002 19.93 4.77002 20.02C4.95002 20.09 5.44002 19.99 6.20002 19.18C6.75002 18.6 7.47002 18.29 8.22002 18.33C8.96002 18.37 9.66002 18.76 10.13 19.39L11.15 20.74C11.2341 20.8521 11.2851 20.9855 11.2973 21.1252C11.3094 21.2648 11.2822 21.405 11.2186 21.5299C11.1551 21.6549 11.0579 21.7595 10.938 21.832C10.818 21.9045 10.6802 21.9419 10.54 21.94Z" fill="white"/>
<path d="M16 7.75H8C7.59 7.75 7.25 7.41 7.25 7C7.25 6.59 7.59 6.25 8 6.25H16C16.41 6.25 16.75 6.59 16.75 7C16.75 7.41 16.41 7.75 16 7.75ZM15 11.75H9C8.59 11.75 8.25 11.41 8.25 11C8.25 10.59 8.59 10.25 9 10.25H15C15.41 10.25 15.75 10.59 15.75 11C15.75 11.41 15.41 11.75 15 11.75ZM14.82 21.782C14.44 21.782 14.08 21.642 13.82 21.382C13.51 21.072 13.37 20.622 13.44 20.152L13.63 18.802C13.68 18.452 13.89 18.032 14.14 17.782L17.68 14.242C18.16 13.762 18.63 13.512 19.14 13.462C19.76 13.402 20.38 13.662 20.96 14.242C21.54 14.822 21.8 15.432 21.74 16.062C21.69 16.562 21.43 17.042 20.96 17.522L17.42 21.062C17.17 21.312 16.75 21.522 16.4 21.572L15.05 21.762C14.97 21.772 14.9 21.782 14.82 21.782ZM19.31 14.952H19.28C19.14 14.962 18.95 15.092 18.74 15.302L15.2 18.842C15.1595 18.8911 15.132 18.9495 15.12 19.012L14.94 20.262L16.19 20.082C16.23 20.072 16.33 20.022 16.36 19.992L19.9 16.452C20.11 16.232 20.24 16.052 20.25 15.912C20.27 15.712 20.07 15.472 19.9 15.302C19.74 15.142 19.51 14.952 19.31 14.952Z" fill="white"/>
<path d="M19.92 18.25C19.85 18.25 19.78 18.24 19.72 18.22C19.0676 18.0348 18.4733 17.6859 17.9938 17.2063C17.5142 16.7267 17.1652 16.1324 16.98 15.48C16.9275 15.2878 16.9525 15.0826 17.0498 14.9086C17.147 14.7347 17.3087 14.6059 17.5 14.55C17.9 14.44 18.31 14.67 18.42 15.07C18.65 15.89 19.3 16.54 20.12 16.77C20.2938 16.8204 20.4437 16.9316 20.5424 17.0832C20.6411 17.2348 20.682 17.4169 20.6578 17.5962C20.6336 17.7755 20.5457 17.9401 20.4103 18.0601C20.2749 18.1801 20.101 18.2475 19.92 18.25Z" fill="white"/>
</svg>
