<svg width="24" height="25" viewBox="0 0 24 25" fill="none" xmlns="http://www.w3.org/2000/svg">
<path d="M11.5002 23.25C10.7102 23.25 9.96025 22.84 9.44025 22.14L8.42023 20.8C8.21023 20.52 7.93025 20.36 7.63025 20.34C7.34025 20.32 7.03027 20.46 6.78027 20.71C5.92027 21.63 5.08022 22.07 4.29022 22.05C3.75022 22.03 3.28023 21.79 2.92023 21.35C2.88023 21.3 2.84024 21.23 2.81024 21.16C2.42024 20.32 2.24023 19.18 2.24023 17.47V7.55001C2.24023 5.84001 2.42024 4.71001 2.81024 3.86001C2.84024 3.80001 2.87023 3.74001 2.92023 3.69001C3.27023 3.24001 3.74027 3.00001 4.28027 2.97001C5.08027 2.94001 5.93026 3.40001 6.77026 4.30001C7.02026 4.57001 7.32024 4.70001 7.62024 4.68001C7.92024 4.66001 8.20022 4.50001 8.41022 4.22001L9.43024 2.87001C9.95024 2.17001 10.7002 1.76001 11.4902 1.76001C12.2802 1.76001 13.0302 2.17001 13.5502 2.87001L14.5602 4.21001C14.7702 4.50001 15.0602 4.66001 15.3702 4.68001C15.6602 4.70001 15.9702 4.56001 16.2202 4.30001C17.0402 3.42001 17.8502 2.97001 18.6302 2.97001C19.1902 2.97001 19.7103 3.22001 20.0703 3.69001C20.1103 3.74001 20.1502 3.80001 20.1802 3.87001C20.5702 4.71001 20.7502 5.85001 20.7502 7.56001V17.48C20.7502 19.19 20.5702 20.32 20.1802 21.17C20.1402 21.26 20.0903 21.34 20.0203 21.41C19.7103 21.81 19.2002 22.06 18.6302 22.06C17.8502 22.06 17.0402 21.61 16.2202 20.73C15.9802 20.47 15.6502 20.33 15.3702 20.35C15.0602 20.37 14.7802 20.53 14.5602 20.82L13.5502 22.16C13.0402 22.84 12.2902 23.25 11.5002 23.25ZM7.58026 18.83C7.62026 18.83 7.67027 18.83 7.71027 18.83C8.45027 18.87 9.14023 19.26 9.61023 19.89L10.6302 21.24C11.1202 21.9 11.8602 21.9 12.3502 21.25L13.3602 19.91C13.8402 19.27 14.5403 18.89 15.2803 18.85C16.0203 18.81 16.7602 19.12 17.3002 19.7C18.0402 20.49 18.4902 20.55 18.6102 20.55C18.6902 20.55 18.7603 20.53 18.8303 20.47C19.1103 19.84 19.2302 18.89 19.2302 17.47V7.55001C19.2302 6.15001 19.1003 5.20001 18.8303 4.57001C18.7503 4.48001 18.6702 4.47001 18.6102 4.47001C18.4902 4.47001 18.0402 4.53001 17.3002 5.32001C16.7602 5.90001 16.0203 6.21001 15.2803 6.17001C14.5303 6.13001 13.8302 5.74001 13.3502 5.11001L12.3403 3.77001C11.8503 3.11001 11.1102 3.11001 10.6202 3.77001L9.60022 5.13001C9.13022 5.76001 8.44026 6.14001 7.70026 6.18001C6.96026 6.22001 6.22024 5.91001 5.68024 5.34001C5.07024 4.68001 4.60027 4.46001 4.34027 4.47001C4.28027 4.47001 4.21025 4.49001 4.13025 4.57001C3.86025 5.20001 3.73022 6.15001 3.73022 7.55001V17.47C3.73022 18.88 3.86025 19.83 4.13025 20.46C4.22025 20.54 4.28027 20.55 4.34027 20.56C4.59027 20.57 5.06023 20.35 5.67023 19.7C6.20023 19.13 6.89026 18.83 7.58026 18.83Z" fill="white"/>
<path d="M16 11.5H8C7.59 11.5 7.25 11.16 7.25 10.75C7.25 10.34 7.59 10 8 10H16C16.41 10 16.75 10.34 16.75 10.75C16.75 11.16 16.41 11.5 16 11.5Z" fill="white"/>
<path d="M14 15H8C7.59 15 7.25 14.66 7.25 14.25C7.25 13.84 7.59 13.5 8 13.5H14C14.41 13.5 14.75 13.84 14.75 14.25C14.75 14.66 14.41 15 14 15Z" fill="white"/>
</svg>
