<svg width="24" height="25" viewBox="0 0 24 25" fill="none" xmlns="http://www.w3.org/2000/svg">
<path d="M18 19.36H17.24C16.44 19.36 15.68 19.67 15.12 20.23L13.41 21.92C12.63 22.69 11.36 22.69 10.58 21.92L8.87 20.23C8.31 19.67 7.54 19.36 6.75 19.36H6C4.34 19.36 3 18.03 3 16.39V5.47998C3 3.83998 4.34 2.51001 6 2.51001H18C19.66 2.51001 21 3.83998 21 5.47998V16.39C21 18.02 19.66 19.36 18 19.36Z" stroke="white" stroke-width="1.5" stroke-miterlimit="10" stroke-linecap="round" stroke-linejoin="round"/>
<path d="M11.9999 10.5C13.2868 10.5 14.33 9.45681 14.33 8.16999C14.33 6.88316 13.2868 5.84003 11.9999 5.84003C10.7131 5.84003 9.66992 6.88316 9.66992 8.16999C9.66992 9.45681 10.7131 10.5 11.9999 10.5Z" stroke="white" stroke-width="1.5" stroke-linecap="round" stroke-linejoin="round"/>
<path d="M16 16.16C16 14.36 14.21 12.9 12 12.9C9.79 12.9 8 14.36 8 16.16" stroke="white" stroke-width="1.5" stroke-linecap="round" stroke-linejoin="round"/>
</svg>
